<svg width="25" height="21" viewBox="0 0 25 21" fill="none" xmlns="http://www.w3.org/2000/svg">
<path d="M17.0968 0.330078C14.2262 0.330078 11.8918 2.66445 11.8918 5.53508C11.8918 5.70758 11.935 5.87633 11.9518 6.04508C8.40246 5.7057 5.26371 3.9957 3.13184 1.38008C3.03246 1.25445 2.87871 1.18695 2.71746 1.1982C2.55809 1.20945 2.41559 1.30133 2.33684 1.44008C1.88871 2.2107 1.63184 3.09758 1.63184 4.05008C1.63184 5.2032 2.04434 6.25883 2.68184 7.12508C2.55809 7.0707 2.42309 7.0407 2.30684 6.97508C2.15871 6.89633 1.98059 6.90008 1.83621 6.98633C1.69184 7.07258 1.60371 7.2282 1.60184 7.39508V7.45508C1.60184 9.2232 2.51684 10.7588 3.86684 11.7001C3.85184 11.6982 3.83684 11.7038 3.82184 11.7001C3.65684 11.672 3.48996 11.7301 3.37934 11.8557C3.26871 11.9813 3.23309 12.1557 3.28184 12.3151C3.81809 13.982 5.18684 15.2551 6.88184 15.7201C5.53184 16.5226 3.96621 16.9951 2.27684 16.9951C1.91121 16.9951 1.56059 16.9763 1.21184 16.9351C0.986837 16.9051 0.771212 17.0363 0.696212 17.2501C0.619337 17.4638 0.703712 17.702 0.896837 17.8201C3.06246 19.2095 5.63309 20.0251 8.39684 20.0251C12.8762 20.0251 16.39 18.1538 18.7468 15.4801C21.1037 12.8063 22.3318 9.33383 22.3318 6.09008C22.3318 5.9532 22.3206 5.82008 22.3168 5.68508C23.1962 5.01195 23.9818 4.22258 24.5968 3.30008C24.7187 3.12195 24.7056 2.88383 24.565 2.71883C24.4262 2.55383 24.1918 2.5032 23.9968 2.59508C23.7493 2.7057 23.4606 2.71695 23.2018 2.80508C23.5431 2.34945 23.8356 1.8582 24.0118 1.30508C24.0718 1.1157 24.0062 0.907578 23.8506 0.783828C23.695 0.661953 23.4775 0.646953 23.3068 0.750078C22.4875 1.2357 21.58 1.57695 20.6218 1.78508C19.6918 0.915078 18.4675 0.330078 17.0968 0.330078ZM17.0968 1.29008C18.3212 1.29008 19.4275 1.8132 20.2018 2.64008C20.3181 2.76008 20.4887 2.8107 20.6518 2.77508C21.2781 2.65133 21.8725 2.46945 22.4518 2.23508C22.1181 2.68508 21.7056 3.06945 21.2218 3.36008C21.0025 3.46695 20.8993 3.72008 20.98 3.9507C21.0587 4.17945 21.2987 4.31258 21.5368 4.26008C22.0168 4.20195 22.4443 4.00695 22.9018 3.88508C22.4912 4.32945 22.0412 4.7307 21.5518 5.08508C21.4187 5.18258 21.3456 5.34008 21.3568 5.50508C21.3643 5.70008 21.3718 5.8932 21.3718 6.09008C21.3718 9.09008 20.2206 12.347 18.0268 14.8351C15.8331 17.3232 12.6118 19.0651 8.39684 19.0651C6.48246 19.0651 4.67496 18.6413 3.04184 17.8951C5.06684 17.7395 6.93434 17.0232 8.44184 15.8401C8.59934 15.7145 8.66121 15.5045 8.59746 15.3132C8.53371 15.122 8.35746 14.9907 8.15684 14.9851C6.57434 14.957 5.24871 14.0363 4.54184 12.7351C4.56809 12.7351 4.59059 12.7351 4.61684 12.7351C5.09121 12.7351 5.55996 12.6751 5.99684 12.5551C6.20684 12.4932 6.35121 12.2982 6.34371 12.0788C6.33621 11.8595 6.18059 11.672 5.96684 11.6251C4.25871 11.2801 2.97809 9.88883 2.68184 8.16008C3.16559 8.32695 3.66059 8.4582 4.19684 8.47508C4.41621 8.4882 4.61496 8.35133 4.68246 8.1432C4.74996 7.93508 4.66746 7.70633 4.48184 7.59008C3.34184 6.82695 2.59184 5.52758 2.59184 4.05008C2.59184 3.50258 2.73434 3.00008 2.92184 2.52008C5.32184 5.15445 8.68184 6.90383 12.4768 7.09508C12.6268 7.10258 12.7731 7.0407 12.8706 6.92633C12.9681 6.81008 13.0056 6.65633 12.9718 6.51008C12.8987 6.19883 12.8518 5.86883 12.8518 5.53508C12.8518 3.18383 14.7456 1.29008 17.0968 1.29008Z" fill="black"/>
<path d="M17.0968 0.330078C14.2262 0.330078 11.8918 2.66445 11.8918 5.53508C11.8918 5.70758 11.935 5.87633 11.9518 6.04508C8.40246 5.7057 5.26371 3.9957 3.13184 1.38008C3.03246 1.25445 2.87871 1.18695 2.71746 1.1982C2.55809 1.20945 2.41559 1.30133 2.33684 1.44008C1.88871 2.2107 1.63184 3.09758 1.63184 4.05008C1.63184 5.2032 2.04434 6.25883 2.68184 7.12508C2.55809 7.0707 2.42309 7.0407 2.30684 6.97508C2.15871 6.89633 1.98059 6.90008 1.83621 6.98633C1.69184 7.07258 1.60371 7.2282 1.60184 7.39508V7.45508C1.60184 9.2232 2.51684 10.7588 3.86684 11.7001C3.85184 11.6982 3.83684 11.7038 3.82184 11.7001C3.65684 11.672 3.48996 11.7301 3.37934 11.8557C3.26871 11.9813 3.23309 12.1557 3.28184 12.3151C3.81809 13.982 5.18684 15.2551 6.88184 15.7201C5.53184 16.5226 3.96621 16.9951 2.27684 16.9951C1.91121 16.9951 1.56059 16.9763 1.21184 16.9351C0.986837 16.9051 0.771212 17.0363 0.696212 17.2501C0.619337 17.4638 0.703712 17.702 0.896837 17.8201C3.06246 19.2095 5.63309 20.0251 8.39684 20.0251C12.8762 20.0251 16.39 18.1538 18.7468 15.4801C21.1037 12.8063 22.3318 9.33383 22.3318 6.09008C22.3318 5.9532 22.3206 5.82008 22.3168 5.68508C23.1962 5.01195 23.9818 4.22258 24.5968 3.30008C24.7187 3.12195 24.7056 2.88383 24.565 2.71883C24.4262 2.55383 24.1918 2.5032 23.9968 2.59508C23.7493 2.7057 23.4606 2.71695 23.2018 2.80508C23.5431 2.34945 23.8356 1.8582 24.0118 1.30508C24.0718 1.1157 24.0062 0.907578 23.8506 0.783828C23.695 0.661953 23.4775 0.646953 23.3068 0.750078C22.4875 1.2357 21.58 1.57695 20.6218 1.78508C19.6918 0.915078 18.4675 0.330078 17.0968 0.330078ZM17.0968 1.29008C18.3212 1.29008 19.4275 1.8132 20.2018 2.64008C20.3181 2.76008 20.4887 2.8107 20.6518 2.77508C21.2781 2.65133 21.8725 2.46945 22.4518 2.23508C22.1181 2.68508 21.7056 3.06945 21.2218 3.36008C21.0025 3.46695 20.8993 3.72008 20.98 3.9507C21.0587 4.17945 21.2987 4.31258 21.5368 4.26008C22.0168 4.20195 22.4443 4.00695 22.9018 3.88508C22.4912 4.32945 22.0412 4.7307 21.5518 5.08508C21.4187 5.18258 21.3456 5.34008 21.3568 5.50508C21.3643 5.70008 21.3718 5.8932 21.3718 6.09008C21.3718 9.09008 20.2206 12.347 18.0268 14.8351C15.8331 17.3232 12.6118 19.0651 8.39684 19.0651C6.48246 19.0651 4.67496 18.6413 3.04184 17.8951C5.06684 17.7395 6.93434 17.0232 8.44184 15.8401C8.59934 15.7145 8.66121 15.5045 8.59746 15.3132C8.53371 15.122 8.35746 14.9907 8.15684 14.9851C6.57434 14.957 5.24871 14.0363 4.54184 12.7351C4.56809 12.7351 4.59059 12.7351 4.61684 12.7351C5.09121 12.7351 5.55996 12.6751 5.99684 12.5551C6.20684 12.4932 6.35121 12.2982 6.34371 12.0788C6.33621 11.8595 6.18059 11.672 5.96684 11.6251C4.25871 11.2801 2.97809 9.88883 2.68184 8.16008C3.16559 8.32695 3.66059 8.4582 4.19684 8.47508C4.41621 8.4882 4.61496 8.35133 4.68246 8.1432C4.74996 7.93508 4.66746 7.70633 4.48184 7.59008C3.34184 6.82695 2.59184 5.52758 2.59184 4.05008C2.59184 3.50258 2.73434 3.00008 2.92184 2.52008C5.32184 5.15445 8.68184 6.90383 12.4768 7.09508C12.6268 7.10258 12.7731 7.0407 12.8706 6.92633C12.9681 6.81008 13.0056 6.65633 12.9718 6.51008C12.8987 6.19883 12.8518 5.86883 12.8518 5.53508C12.8518 3.18383 14.7456 1.29008 17.0968 1.29008Z" fill="white"/>
</svg>
