<svg width="23" height="23" viewBox="0 0 23 23" fill="none" xmlns="http://www.w3.org/2000/svg">
<path d="M11.1103 0.787109C5.01889 0.787109 0.0703125 5.73569 0.0703125 11.8271C0.0703125 13.7851 0.607283 15.6123 1.50281 17.2074L0.088125 22.2577C0.0655241 22.3386 0.0645029 22.4239 0.0851633 22.5052C0.105824 22.5865 0.147444 22.661 0.205874 22.7213C0.264304 22.7815 0.337503 22.8254 0.418171 22.8485C0.49884 22.8716 0.58416 22.8732 0.665625 22.853L5.93156 21.548C7.47893 22.3741 9.23476 22.8671 11.1103 22.8671C17.2017 22.8671 22.1503 17.9185 22.1503 11.8271C22.1503 5.73569 17.2017 0.787109 11.1103 0.787109ZM11.1103 1.74711C16.6829 1.74711 21.1903 6.25453 21.1903 11.8271C21.1903 17.3997 16.6829 21.9071 11.1103 21.9071C9.32376 21.9071 7.65053 21.4413 6.19594 20.6274C6.08955 20.568 5.96454 20.5512 5.84625 20.5805L1.23469 21.7234L2.47125 17.3115C2.48894 17.2491 2.49383 17.1838 2.48561 17.1196C2.4774 17.0553 2.45625 16.9933 2.42344 16.9374C1.53944 15.4384 1.03031 13.6944 1.03031 11.8271C1.03031 6.25453 5.53774 1.74711 11.1103 1.74711ZM7.09875 6.06711C6.79105 6.06711 6.35161 6.18158 5.99062 6.57055C5.7738 6.80417 4.87031 7.68447 4.87031 9.23211C4.87031 10.8456 5.98938 12.2379 6.12469 12.4168H6.12562V12.4177C6.11279 12.4009 6.29737 12.6682 6.54375 12.9887C6.79013 13.3092 7.13467 13.7301 7.5675 14.1859C8.43317 15.0973 9.65029 16.1507 11.1609 16.7949C11.8566 17.0912 12.4054 17.27 12.8212 17.4005C13.5918 17.6425 14.2937 17.6057 14.8209 17.528C15.2156 17.4699 15.6496 17.2804 16.0791 17.0087C16.5085 16.7369 16.9294 16.399 17.115 15.8855C17.248 15.5175 17.3156 15.1773 17.34 14.8974C17.3522 14.7575 17.3538 14.634 17.3447 14.5196C17.3356 14.4053 17.3453 14.3177 17.2388 14.1427C17.0153 13.7758 16.7622 13.7662 16.4981 13.6355C16.3514 13.5629 15.9337 13.3589 15.5147 13.1593C15.0962 12.9599 14.7338 12.7832 14.5106 12.7037C14.3696 12.6529 14.1975 12.5799 13.9491 12.608C13.7007 12.6362 13.4553 12.8154 13.3125 13.0271C13.1771 13.2278 12.6321 13.8711 12.4659 14.0602C12.4637 14.0589 12.4781 14.0655 12.4125 14.033C12.207 13.9313 11.9557 13.8449 11.5837 13.6487C11.2118 13.4525 10.7466 13.1628 10.2375 12.714V12.713C9.47977 12.046 8.949 11.2084 8.78156 10.9271C8.79284 10.9137 8.78022 10.9299 8.80406 10.9065L8.805 10.9055C8.97613 10.737 9.12779 10.5357 9.25594 10.388C9.43764 10.1787 9.51782 9.9942 9.60469 9.8218C9.77781 9.4782 9.68141 9.10011 9.58125 8.90117V8.90023C9.58817 8.914 9.52707 8.77918 9.46125 8.62367C9.39524 8.46772 9.31111 8.26553 9.22125 8.04992C9.04153 7.61871 8.84089 7.13507 8.72156 6.8518V6.85086C8.581 6.5172 8.39082 6.27682 8.14219 6.16086C7.89355 6.04489 7.67389 6.07786 7.665 6.07742H7.66406C7.48663 6.06924 7.29193 6.06711 7.09875 6.06711ZM7.09875 7.02711C7.28381 7.02711 7.46626 7.02937 7.61906 7.03648C7.77626 7.04432 7.76648 7.04496 7.73625 7.03086C7.70553 7.01654 7.74721 7.01188 7.83656 7.22398C7.9534 7.50135 8.15503 7.98675 8.33531 8.4193C8.42545 8.63557 8.50981 8.83854 8.57719 8.99773C8.64456 9.15693 8.68107 9.24581 8.72344 9.33055V9.33148L8.72437 9.33242C8.76591 9.41438 8.76224 9.36191 8.74781 9.39055C8.64652 9.59158 8.63277 9.64095 8.53031 9.75898C8.3743 9.93871 8.21517 10.1391 8.13094 10.2221C8.05724 10.2945 7.92427 10.4073 7.84125 10.628C7.7581 10.8491 7.79691 11.1525 7.93031 11.379C8.10793 11.6805 8.69323 12.6332 9.60281 13.434C10.1756 13.939 10.7093 14.2732 11.1356 14.498C11.5619 14.7229 11.9092 14.8543 11.9869 14.8927C12.1714 14.984 12.373 15.055 12.6075 15.0268C12.842 14.9986 13.0441 14.8564 13.1728 14.7109L13.1737 14.7099C13.345 14.5158 13.8539 13.9347 14.0981 13.5765C14.1085 13.5801 14.1051 13.5773 14.1862 13.6065V13.6074H14.1872C14.2242 13.6206 14.6884 13.8284 15.1022 14.0255C15.516 14.2227 15.936 14.4277 16.0725 14.4952C16.2695 14.5927 16.3625 14.6562 16.3866 14.6565C16.3882 14.6987 16.3898 14.7445 16.3837 14.814C16.3669 15.0068 16.3154 15.2736 16.2122 15.5593C16.1616 15.6991 15.8983 15.9876 15.5662 16.1977C15.2342 16.4079 14.83 16.5563 14.6803 16.5784C14.2303 16.6447 13.6959 16.6689 13.1091 16.4846C12.7022 16.3569 12.1948 16.1916 11.5378 15.9118C10.2054 15.3436 9.073 14.3766 8.26406 13.5249C7.8596 13.0991 7.53554 12.7026 7.305 12.4027C7.07489 12.1034 6.97441 11.9476 6.89062 11.8374L6.88969 11.8365C6.74097 11.6398 5.83031 10.3731 5.83031 9.23211C5.83031 8.02454 6.39119 7.551 6.69469 7.22398C6.85402 7.05231 7.02821 7.02711 7.09875 7.02711Z" fill="black"/>
<path d="M11.1103 0.787109C5.01889 0.787109 0.0703125 5.73569 0.0703125 11.8271C0.0703125 13.7851 0.607283 15.6123 1.50281 17.2074L0.088125 22.2577C0.0655241 22.3386 0.0645029 22.4239 0.0851633 22.5052C0.105824 22.5865 0.147444 22.661 0.205874 22.7213C0.264304 22.7815 0.337503 22.8254 0.418171 22.8485C0.49884 22.8716 0.58416 22.8732 0.665625 22.853L5.93156 21.548C7.47893 22.3741 9.23476 22.8671 11.1103 22.8671C17.2017 22.8671 22.1503 17.9185 22.1503 11.8271C22.1503 5.73569 17.2017 0.787109 11.1103 0.787109ZM11.1103 1.74711C16.6829 1.74711 21.1903 6.25453 21.1903 11.8271C21.1903 17.3997 16.6829 21.9071 11.1103 21.9071C9.32376 21.9071 7.65053 21.4413 6.19594 20.6274C6.08955 20.568 5.96454 20.5512 5.84625 20.5805L1.23469 21.7234L2.47125 17.3115C2.48894 17.2491 2.49383 17.1838 2.48561 17.1196C2.4774 17.0553 2.45625 16.9933 2.42344 16.9374C1.53944 15.4384 1.03031 13.6944 1.03031 11.8271C1.03031 6.25453 5.53774 1.74711 11.1103 1.74711ZM7.09875 6.06711C6.79105 6.06711 6.35161 6.18158 5.99062 6.57055C5.7738 6.80417 4.87031 7.68447 4.87031 9.23211C4.87031 10.8456 5.98938 12.2379 6.12469 12.4168H6.12562V12.4177C6.11279 12.4009 6.29737 12.6682 6.54375 12.9887C6.79013 13.3092 7.13467 13.7301 7.5675 14.1859C8.43317 15.0973 9.65029 16.1507 11.1609 16.7949C11.8566 17.0912 12.4054 17.27 12.8212 17.4005C13.5918 17.6425 14.2937 17.6057 14.8209 17.528C15.2156 17.4699 15.6496 17.2804 16.0791 17.0087C16.5085 16.7369 16.9294 16.399 17.115 15.8855C17.248 15.5175 17.3156 15.1773 17.34 14.8974C17.3522 14.7575 17.3538 14.634 17.3447 14.5196C17.3356 14.4053 17.3453 14.3177 17.2388 14.1427C17.0153 13.7758 16.7622 13.7662 16.4981 13.6355C16.3514 13.5629 15.9337 13.3589 15.5147 13.1593C15.0962 12.9599 14.7338 12.7832 14.5106 12.7037C14.3696 12.6529 14.1975 12.5799 13.9491 12.608C13.7007 12.6362 13.4553 12.8154 13.3125 13.0271C13.1771 13.2278 12.6321 13.8711 12.4659 14.0602C12.4637 14.0589 12.4781 14.0655 12.4125 14.033C12.207 13.9313 11.9557 13.8449 11.5837 13.6487C11.2118 13.4525 10.7466 13.1628 10.2375 12.714V12.713C9.47977 12.046 8.949 11.2084 8.78156 10.9271C8.79284 10.9137 8.78022 10.9299 8.80406 10.9065L8.805 10.9055C8.97613 10.737 9.12779 10.5357 9.25594 10.388C9.43764 10.1787 9.51782 9.9942 9.60469 9.8218C9.77781 9.4782 9.68141 9.10011 9.58125 8.90117V8.90023C9.58817 8.914 9.52707 8.77918 9.46125 8.62367C9.39524 8.46772 9.31111 8.26553 9.22125 8.04992C9.04153 7.61871 8.84089 7.13507 8.72156 6.8518V6.85086C8.581 6.5172 8.39082 6.27682 8.14219 6.16086C7.89355 6.04489 7.67389 6.07786 7.665 6.07742H7.66406C7.48663 6.06924 7.29193 6.06711 7.09875 6.06711ZM7.09875 7.02711C7.28381 7.02711 7.46626 7.02937 7.61906 7.03648C7.77626 7.04432 7.76648 7.04496 7.73625 7.03086C7.70553 7.01654 7.74721 7.01188 7.83656 7.22398C7.9534 7.50135 8.15503 7.98675 8.33531 8.4193C8.42545 8.63557 8.50981 8.83854 8.57719 8.99773C8.64456 9.15693 8.68107 9.24581 8.72344 9.33055V9.33148L8.72437 9.33242C8.76591 9.41438 8.76224 9.36191 8.74781 9.39055C8.64652 9.59158 8.63277 9.64095 8.53031 9.75898C8.3743 9.93871 8.21517 10.1391 8.13094 10.2221C8.05724 10.2945 7.92427 10.4073 7.84125 10.628C7.7581 10.8491 7.79691 11.1525 7.93031 11.379C8.10793 11.6805 8.69323 12.6332 9.60281 13.434C10.1756 13.939 10.7093 14.2732 11.1356 14.498C11.5619 14.7229 11.9092 14.8543 11.9869 14.8927C12.1714 14.984 12.373 15.055 12.6075 15.0268C12.842 14.9986 13.0441 14.8564 13.1728 14.7109L13.1737 14.7099C13.345 14.5158 13.8539 13.9347 14.0981 13.5765C14.1085 13.5801 14.1051 13.5773 14.1862 13.6065V13.6074H14.1872C14.2242 13.6206 14.6884 13.8284 15.1022 14.0255C15.516 14.2227 15.936 14.4277 16.0725 14.4952C16.2695 14.5927 16.3625 14.6562 16.3866 14.6565C16.3882 14.6987 16.3898 14.7445 16.3837 14.814C16.3669 15.0068 16.3154 15.2736 16.2122 15.5593C16.1616 15.6991 15.8983 15.9876 15.5662 16.1977C15.2342 16.4079 14.83 16.5563 14.6803 16.5784C14.2303 16.6447 13.6959 16.6689 13.1091 16.4846C12.7022 16.3569 12.1948 16.1916 11.5378 15.9118C10.2054 15.3436 9.073 14.3766 8.26406 13.5249C7.8596 13.0991 7.53554 12.7026 7.305 12.4027C7.07489 12.1034 6.97441 11.9476 6.89062 11.8374L6.88969 11.8365C6.74097 11.6398 5.83031 10.3731 5.83031 9.23211C5.83031 8.02454 6.39119 7.551 6.69469 7.22398C6.85402 7.05231 7.02821 7.02711 7.09875 7.02711Z" fill="white"/>
</svg>
