<svg width="22" height="22" viewBox="0 0 22 22" fill="none" xmlns="http://www.w3.org/2000/svg">
<path d="M10.7944 0.787109C4.96793 0.787109 0.234375 5.52066 0.234375 11.3471C0.234375 16.6363 4.13559 21.0135 9.21656 21.7768L9.76781 21.8602V13.539H7.27313V11.8496H9.76781V9.60617C9.76781 8.22469 10.0993 7.31483 10.6481 6.74398C11.1969 6.17314 12.0078 5.88523 13.1363 5.88523C14.0386 5.88523 14.3896 5.93991 14.7234 5.98086V7.36367H13.5488C12.8822 7.36367 12.3354 7.73554 12.0516 8.23086C11.7677 8.72618 11.6794 9.31758 11.6794 9.92023V11.8487H14.6184L14.3569 13.538H11.6794V21.8734L12.2241 21.7993C17.3773 21.1004 21.3544 16.688 21.3544 11.3471C21.3544 5.52066 16.6208 0.787109 10.7944 0.787109ZM10.7944 1.74711C16.102 1.74711 20.3944 6.03948 20.3944 11.3471C20.3944 16.0174 17.0516 19.8584 12.6394 20.723V14.498H15.18L15.7378 10.8887H12.6394V9.92023C12.6394 9.42225 12.7305 8.97605 12.8841 8.70805C13.0376 8.44004 13.1857 8.32367 13.5488 8.32367H15.6834V5.1118L15.2672 5.05555C14.9793 5.01659 14.322 4.92523 13.1363 4.92523C11.8388 4.92523 10.725 5.27868 9.95625 6.07836C9.18745 6.87803 8.80781 8.06877 8.80781 9.60617V10.8896H6.31312V14.499H8.80781V20.693C4.46653 19.7734 1.19438 15.9668 1.19438 11.3471C1.19438 6.03948 5.48675 1.74711 10.7944 1.74711Z" fill="black"/>
<path d="M10.7944 0.787109C4.96793 0.787109 0.234375 5.52066 0.234375 11.3471C0.234375 16.6363 4.13559 21.0135 9.21656 21.7768L9.76781 21.8602V13.539H7.27313V11.8496H9.76781V9.60617C9.76781 8.22469 10.0993 7.31483 10.6481 6.74398C11.1969 6.17314 12.0078 5.88523 13.1363 5.88523C14.0386 5.88523 14.3896 5.93991 14.7234 5.98086V7.36367H13.5488C12.8822 7.36367 12.3354 7.73554 12.0516 8.23086C11.7677 8.72618 11.6794 9.31758 11.6794 9.92023V11.8487H14.6184L14.3569 13.538H11.6794V21.8734L12.2241 21.7993C17.3773 21.1004 21.3544 16.688 21.3544 11.3471C21.3544 5.52066 16.6208 0.787109 10.7944 0.787109ZM10.7944 1.74711C16.102 1.74711 20.3944 6.03948 20.3944 11.3471C20.3944 16.0174 17.0516 19.8584 12.6394 20.723V14.498H15.18L15.7378 10.8887H12.6394V9.92023C12.6394 9.42225 12.7305 8.97605 12.8841 8.70805C13.0376 8.44004 13.1857 8.32367 13.5488 8.32367H15.6834V5.1118L15.2672 5.05555C14.9793 5.01659 14.322 4.92523 13.1363 4.92523C11.8388 4.92523 10.725 5.27868 9.95625 6.07836C9.18745 6.87803 8.80781 8.06877 8.80781 9.60617V10.8896H6.31312V14.499H8.80781V20.693C4.46653 19.7734 1.19438 15.9668 1.19438 11.3471C1.19438 6.03948 5.48675 1.74711 10.7944 1.74711Z" fill="white"/>
</svg>
