<svg width="24" height="23" viewBox="0 0 24 23" fill="none" xmlns="http://www.w3.org/2000/svg">
<path d="M12.009 0.132812C5.93587 0.132812 0.968994 4.73969 0.968994 10.4528C0.968994 13.5766 2.47274 16.3497 4.80899 18.2378V22.5278L5.51399 22.1528L8.97899 20.3528C9.94649 20.6116 10.9534 20.7728 12.009 20.7728C18.0821 20.7728 23.049 16.1659 23.049 10.4528C23.049 4.73969 18.0821 0.132812 12.009 0.132812ZM12.009 1.09281C17.5984 1.09281 22.089 5.29656 22.089 10.4528C22.089 15.6091 17.5984 19.8128 12.009 19.8128C10.9702 19.8128 9.96524 19.6628 9.02399 19.3928L8.84399 19.3478L8.67899 19.4378L5.76899 20.9528V17.8028L5.58899 17.6678C3.35024 15.9447 1.92899 13.3516 1.92899 10.4528C1.92899 5.29656 6.41962 1.09281 12.009 1.09281ZM10.914 7.67781L5.13899 13.7978L10.329 10.8878L13.104 13.8578L18.804 7.67781L13.749 10.5128L10.914 7.67781Z" fill="black"/>
<path d="M12.009 0.132812C5.93587 0.132812 0.968994 4.73969 0.968994 10.4528C0.968994 13.5766 2.47274 16.3497 4.80899 18.2378V22.5278L5.51399 22.1528L8.97899 20.3528C9.94649 20.6116 10.9534 20.7728 12.009 20.7728C18.0821 20.7728 23.049 16.1659 23.049 10.4528C23.049 4.73969 18.0821 0.132812 12.009 0.132812ZM12.009 1.09281C17.5984 1.09281 22.089 5.29656 22.089 10.4528C22.089 15.6091 17.5984 19.8128 12.009 19.8128C10.9702 19.8128 9.96524 19.6628 9.02399 19.3928L8.84399 19.3478L8.67899 19.4378L5.76899 20.9528V17.8028L5.58899 17.6678C3.35024 15.9447 1.92899 13.3516 1.92899 10.4528C1.92899 5.29656 6.41962 1.09281 12.009 1.09281ZM10.914 7.67781L5.13899 13.7978L10.329 10.8878L13.104 13.8578L18.804 7.67781L13.749 10.5128L10.914 7.67781Z" fill="white"/>
</svg>
