<svg width="19" height="19" viewBox="0 0 19 19" fill="none" xmlns="http://www.w3.org/2000/svg">
<path d="M5.61719 0.330078C2.86019 0.330078 0.617188 2.57308 0.617188 5.33008V13.3301C0.617188 16.0871 2.86019 18.3301 5.61719 18.3301H13.6172C16.3742 18.3301 18.6172 16.0871 18.6172 13.3301V5.33008C18.6172 2.57308 16.3742 0.330078 13.6172 0.330078H5.61719ZM5.61719 2.33008H13.6172C15.2712 2.33008 16.6172 3.67608 16.6172 5.33008V13.3301C16.6172 14.9841 15.2712 16.3301 13.6172 16.3301H5.61719C3.96319 16.3301 2.61719 14.9841 2.61719 13.3301V5.33008C2.61719 3.67608 3.96319 2.33008 5.61719 2.33008ZM14.6172 3.33008C14.352 3.33008 14.0976 3.43544 13.9101 3.62297C13.7225 3.81051 13.6172 4.06486 13.6172 4.33008C13.6172 4.59529 13.7225 4.84965 13.9101 5.03718C14.0976 5.22472 14.352 5.33008 14.6172 5.33008C14.8824 5.33008 15.1368 5.22472 15.3243 5.03718C15.5118 4.84965 15.6172 4.59529 15.6172 4.33008C15.6172 4.06486 15.5118 3.81051 15.3243 3.62297C15.1368 3.43544 14.8824 3.33008 14.6172 3.33008ZM9.61719 4.33008C6.86019 4.33008 4.61719 6.57308 4.61719 9.33008C4.61719 12.0871 6.86019 14.3301 9.61719 14.3301C12.3742 14.3301 14.6172 12.0871 14.6172 9.33008C14.6172 6.57308 12.3742 4.33008 9.61719 4.33008ZM9.61719 6.33008C11.2712 6.33008 12.6172 7.67608 12.6172 9.33008C12.6172 10.9841 11.2712 12.3301 9.61719 12.3301C7.96319 12.3301 6.61719 10.9841 6.61719 9.33008C6.61719 7.67608 7.96319 6.33008 9.61719 6.33008Z" fill="black"/>
<path d="M5.61719 0.330078C2.86019 0.330078 0.617188 2.57308 0.617188 5.33008V13.3301C0.617188 16.0871 2.86019 18.3301 5.61719 18.3301H13.6172C16.3742 18.3301 18.6172 16.0871 18.6172 13.3301V5.33008C18.6172 2.57308 16.3742 0.330078 13.6172 0.330078H5.61719ZM5.61719 2.33008H13.6172C15.2712 2.33008 16.6172 3.67608 16.6172 5.33008V13.3301C16.6172 14.9841 15.2712 16.3301 13.6172 16.3301H5.61719C3.96319 16.3301 2.61719 14.9841 2.61719 13.3301V5.33008C2.61719 3.67608 3.96319 2.33008 5.61719 2.33008ZM14.6172 3.33008C14.352 3.33008 14.0976 3.43544 13.9101 3.62297C13.7225 3.81051 13.6172 4.06486 13.6172 4.33008C13.6172 4.59529 13.7225 4.84965 13.9101 5.03718C14.0976 5.22472 14.352 5.33008 14.6172 5.33008C14.8824 5.33008 15.1368 5.22472 15.3243 5.03718C15.5118 4.84965 15.6172 4.59529 15.6172 4.33008C15.6172 4.06486 15.5118 3.81051 15.3243 3.62297C15.1368 3.43544 14.8824 3.33008 14.6172 3.33008ZM9.61719 4.33008C6.86019 4.33008 4.61719 6.57308 4.61719 9.33008C4.61719 12.0871 6.86019 14.3301 9.61719 14.3301C12.3742 14.3301 14.6172 12.0871 14.6172 9.33008C14.6172 6.57308 12.3742 4.33008 9.61719 4.33008ZM9.61719 6.33008C11.2712 6.33008 12.6172 7.67608 12.6172 9.33008C12.6172 10.9841 11.2712 12.3301 9.61719 12.3301C7.96319 12.3301 6.61719 10.9841 6.61719 9.33008C6.61719 7.67608 7.96319 6.33008 9.61719 6.33008Z" fill="white"/>
</svg>
