<svg width="21" height="21" viewBox="0 0 21 21" fill="none" xmlns="http://www.w3.org/2000/svg">
<path d="M2.69297 0.0976562C1.3732 0.0976562 0.292969 1.17789 0.292969 2.49766V17.8577C0.292969 19.1774 1.3732 20.2577 2.69297 20.2577H18.053C19.3727 20.2577 20.453 19.1774 20.453 17.8577V2.49766C20.453 1.17789 19.3727 0.0976562 18.053 0.0976562H2.69297ZM2.69297 1.05766H18.053C18.8538 1.05766 19.493 1.69678 19.493 2.49766V17.8577C19.493 18.6585 18.8538 19.2977 18.053 19.2977H2.69297C1.8921 19.2977 1.25297 18.6585 1.25297 17.8577V2.49766C1.25297 1.69678 1.8921 1.05766 2.69297 1.05766ZM5.09297 3.46328C4.56726 3.46328 4.09419 3.62041 3.74391 3.91516C3.39362 4.2099 3.17859 4.65022 3.17859 5.12172C3.17859 6.01796 3.95599 6.71667 4.94484 6.78578C4.94547 6.7861 4.94609 6.78641 4.94672 6.78672C4.99384 6.80278 5.04319 6.81132 5.09297 6.81203C6.18401 6.81203 7.00734 6.04778 7.00734 5.12172C7.00726 5.11327 7.00694 5.10483 7.00641 5.09641C6.95757 4.18429 6.14438 3.46328 5.09297 3.46328ZM5.09297 4.41203C5.76124 4.41203 6.02511 4.71047 6.05391 5.13391C6.04807 5.5449 5.79381 5.86328 5.09297 5.86328C4.42797 5.86328 4.12734 5.52272 4.12734 5.12172C4.12734 4.92122 4.20051 4.77012 4.35422 4.64078C4.50793 4.51144 4.75467 4.41203 5.09297 4.41203ZM3.65297 7.29766C3.52567 7.29767 3.40359 7.34824 3.31357 7.43826C3.22356 7.52827 3.17298 7.65036 3.17297 7.77766V16.8977C3.17298 17.025 3.22356 17.147 3.31357 17.2371C3.40359 17.3271 3.52567 17.3776 3.65297 17.3777H6.53297C6.66027 17.3776 6.78235 17.3271 6.87237 17.2371C6.96238 17.147 7.01296 17.025 7.01297 16.8977V14.0823V7.77766C7.01296 7.65036 6.96238 7.52827 6.87237 7.43826C6.78235 7.34824 6.66027 7.29767 6.53297 7.29766H3.65297ZM7.97297 7.29766C7.84567 7.29767 7.72359 7.34824 7.63357 7.43826C7.54356 7.52827 7.49298 7.65036 7.49297 7.77766V16.8977C7.49298 17.025 7.54356 17.147 7.63357 17.2371C7.72359 17.3271 7.84567 17.3776 7.97297 17.3777H10.853C10.9803 17.3776 11.1024 17.3271 11.1924 17.2371C11.2824 17.147 11.333 17.025 11.333 16.8977V12.0977C11.333 11.6994 11.4416 11.3033 11.633 11.0439C11.8243 10.7845 12.0657 10.6289 12.5245 10.637C12.9977 10.6452 13.2482 10.8073 13.4377 11.0617C13.6271 11.3162 13.733 11.6977 13.733 12.0977V16.8977C13.733 17.025 13.7836 17.147 13.8736 17.2371C13.9636 17.3271 14.0857 17.3776 14.213 17.3777H17.093C17.2203 17.3776 17.3424 17.3271 17.4324 17.2371C17.5224 17.147 17.573 17.025 17.573 16.8977V11.7433C17.573 10.3217 17.1519 9.19573 16.4302 8.43391C15.7084 7.67208 14.7046 7.29766 13.643 7.29766C12.634 7.29766 11.8662 7.636 11.333 7.98109V7.77766C11.333 7.65036 11.2824 7.52827 11.1924 7.43826C11.1024 7.34824 10.9803 7.29767 10.853 7.29766H7.97297ZM4.13297 8.25766H6.05297V14.0823V16.4177H4.13297V8.25766ZM8.45297 8.25766H10.373V9.00672C10.373 9.10737 10.4047 9.20546 10.4635 9.28713C10.5223 9.3688 10.6053 9.42992 10.7008 9.46184C10.7962 9.49376 10.8993 9.49487 10.9954 9.46502C11.0915 9.43516 11.1758 9.37585 11.2364 9.29547C11.2364 9.29547 11.9902 8.25766 13.643 8.25766C14.4846 8.25766 15.2063 8.53729 15.7336 9.09391C16.2609 9.65052 16.613 10.508 16.613 11.7433V16.4177H14.693V12.0977C14.693 11.5377 14.5588 10.9587 14.2083 10.488C13.8578 10.0173 13.2682 9.68953 12.5414 9.67703C11.8108 9.66406 11.2118 9.99861 10.8605 10.4748C10.5092 10.9511 10.373 11.5359 10.373 12.0977V16.4177H8.45297V8.25766Z" fill="black"/>
<path d="M2.69297 0.0976562C1.3732 0.0976562 0.292969 1.17789 0.292969 2.49766V17.8577C0.292969 19.1774 1.3732 20.2577 2.69297 20.2577H18.053C19.3727 20.2577 20.453 19.1774 20.453 17.8577V2.49766C20.453 1.17789 19.3727 0.0976562 18.053 0.0976562H2.69297ZM2.69297 1.05766H18.053C18.8538 1.05766 19.493 1.69678 19.493 2.49766V17.8577C19.493 18.6585 18.8538 19.2977 18.053 19.2977H2.69297C1.8921 19.2977 1.25297 18.6585 1.25297 17.8577V2.49766C1.25297 1.69678 1.8921 1.05766 2.69297 1.05766ZM5.09297 3.46328C4.56726 3.46328 4.09419 3.62041 3.74391 3.91516C3.39362 4.2099 3.17859 4.65022 3.17859 5.12172C3.17859 6.01796 3.95599 6.71667 4.94484 6.78578C4.94547 6.7861 4.94609 6.78641 4.94672 6.78672C4.99384 6.80278 5.04319 6.81132 5.09297 6.81203C6.18401 6.81203 7.00734 6.04778 7.00734 5.12172C7.00726 5.11327 7.00694 5.10483 7.00641 5.09641C6.95757 4.18429 6.14438 3.46328 5.09297 3.46328ZM5.09297 4.41203C5.76124 4.41203 6.02511 4.71047 6.05391 5.13391C6.04807 5.5449 5.79381 5.86328 5.09297 5.86328C4.42797 5.86328 4.12734 5.52272 4.12734 5.12172C4.12734 4.92122 4.20051 4.77012 4.35422 4.64078C4.50793 4.51144 4.75467 4.41203 5.09297 4.41203ZM3.65297 7.29766C3.52567 7.29767 3.40359 7.34824 3.31357 7.43826C3.22356 7.52827 3.17298 7.65036 3.17297 7.77766V16.8977C3.17298 17.025 3.22356 17.147 3.31357 17.2371C3.40359 17.3271 3.52567 17.3776 3.65297 17.3777H6.53297C6.66027 17.3776 6.78235 17.3271 6.87237 17.2371C6.96238 17.147 7.01296 17.025 7.01297 16.8977V14.0823V7.77766C7.01296 7.65036 6.96238 7.52827 6.87237 7.43826C6.78235 7.34824 6.66027 7.29767 6.53297 7.29766H3.65297ZM7.97297 7.29766C7.84567 7.29767 7.72359 7.34824 7.63357 7.43826C7.54356 7.52827 7.49298 7.65036 7.49297 7.77766V16.8977C7.49298 17.025 7.54356 17.147 7.63357 17.2371C7.72359 17.3271 7.84567 17.3776 7.97297 17.3777H10.853C10.9803 17.3776 11.1024 17.3271 11.1924 17.2371C11.2824 17.147 11.333 17.025 11.333 16.8977V12.0977C11.333 11.6994 11.4416 11.3033 11.633 11.0439C11.8243 10.7845 12.0657 10.6289 12.5245 10.637C12.9977 10.6452 13.2482 10.8073 13.4377 11.0617C13.6271 11.3162 13.733 11.6977 13.733 12.0977V16.8977C13.733 17.025 13.7836 17.147 13.8736 17.2371C13.9636 17.3271 14.0857 17.3776 14.213 17.3777H17.093C17.2203 17.3776 17.3424 17.3271 17.4324 17.2371C17.5224 17.147 17.573 17.025 17.573 16.8977V11.7433C17.573 10.3217 17.1519 9.19573 16.4302 8.43391C15.7084 7.67208 14.7046 7.29766 13.643 7.29766C12.634 7.29766 11.8662 7.636 11.333 7.98109V7.77766C11.333 7.65036 11.2824 7.52827 11.1924 7.43826C11.1024 7.34824 10.9803 7.29767 10.853 7.29766H7.97297ZM4.13297 8.25766H6.05297V14.0823V16.4177H4.13297V8.25766ZM8.45297 8.25766H10.373V9.00672C10.373 9.10737 10.4047 9.20546 10.4635 9.28713C10.5223 9.3688 10.6053 9.42992 10.7008 9.46184C10.7962 9.49376 10.8993 9.49487 10.9954 9.46502C11.0915 9.43516 11.1758 9.37585 11.2364 9.29547C11.2364 9.29547 11.9902 8.25766 13.643 8.25766C14.4846 8.25766 15.2063 8.53729 15.7336 9.09391C16.2609 9.65052 16.613 10.508 16.613 11.7433V16.4177H14.693V12.0977C14.693 11.5377 14.5588 10.9587 14.2083 10.488C13.8578 10.0173 13.2682 9.68953 12.5414 9.67703C11.8108 9.66406 11.2118 9.99861 10.8605 10.4748C10.5092 10.9511 10.373 11.5359 10.373 12.0977V16.4177H8.45297V8.25766Z" fill="white"/>
</svg>
