<svg width="17" height="17" viewBox="0 0 17 17" fill="none" xmlns="http://www.w3.org/2000/svg">
<path d="M15.2578 15.0146L10.7578 10.5146M12.2578 6.76465C12.2578 7.45409 12.122 8.13678 11.8582 8.77374C11.5943 9.4107 11.2076 9.98945 10.7201 10.477C10.2326 10.9645 9.65386 11.3512 9.0169 11.615C8.37994 11.8789 7.69725 12.0146 7.00781 12.0146C6.31837 12.0146 5.63568 11.8789 4.99872 11.615C4.36177 11.3512 3.78301 10.9645 3.2955 10.477C2.80799 9.98945 2.42128 9.4107 2.15745 8.77374C1.89361 8.13678 1.75781 7.45409 1.75781 6.76465C1.75781 5.37226 2.31094 4.0369 3.2955 3.05234C4.28007 2.06777 5.61543 1.51465 7.00781 1.51465C8.4002 1.51465 9.73556 2.06777 10.7201 3.05234C11.7047 4.0369 12.2578 5.37226 12.2578 6.76465Z" stroke="white" stroke-opacity="0.5" stroke-width="2" stroke-linecap="round" stroke-linejoin="round"/>
<path d="M15.2578 15.0146L10.7578 10.5146M12.2578 6.76465C12.2578 7.45409 12.122 8.13678 11.8582 8.77374C11.5943 9.4107 11.2076 9.98945 10.7201 10.477C10.2326 10.9645 9.65386 11.3512 9.0169 11.615C8.37994 11.8789 7.69725 12.0146 7.00781 12.0146C6.31837 12.0146 5.63568 11.8789 4.99872 11.615C4.36177 11.3512 3.78301 10.9645 3.2955 10.477C2.80799 9.98945 2.42128 9.4107 2.15745 8.77374C1.89361 8.13678 1.75781 7.45409 1.75781 6.76465C1.75781 5.37226 2.31094 4.0369 3.2955 3.05234C4.28007 2.06777 5.61543 1.51465 7.00781 1.51465C8.4002 1.51465 9.73556 2.06777 10.7201 3.05234C11.7047 4.0369 12.2578 5.37226 12.2578 6.76465Z" stroke="#3D6081" stroke-width="2" stroke-linecap="round" stroke-linejoin="round"/>
</svg>
