<svg width="25" height="21" viewBox="0 0 25 21" fill="none" xmlns="http://www.w3.org/2000/svg">
<path d="M17.0968 0.884766C14.2262 0.884766 11.8918 3.21914 11.8918 6.08977C11.8918 6.26227 11.935 6.43102 11.9518 6.59977C8.40246 6.26039 5.26371 4.55039 3.13184 1.93477C3.03246 1.80914 2.87871 1.74164 2.71746 1.75289C2.55809 1.76414 2.41559 1.85602 2.33684 1.99477C1.88871 2.76539 1.63184 3.65227 1.63184 4.60477C1.63184 5.75789 2.04434 6.81352 2.68184 7.67977C2.55809 7.62539 2.42309 7.59539 2.30684 7.52977C2.15871 7.45102 1.98059 7.45477 1.83621 7.54102C1.69184 7.62727 1.60371 7.78289 1.60184 7.94977V8.00977C1.60184 9.77789 2.51684 11.3135 3.86684 12.2548C3.85184 12.2529 3.83684 12.2585 3.82184 12.2548C3.65684 12.2266 3.48996 12.2848 3.37934 12.4104C3.26871 12.536 3.23309 12.7104 3.28184 12.8698C3.81809 14.5366 5.18684 15.8098 6.88184 16.2748C5.53184 17.0773 3.96621 17.5498 2.27684 17.5498C1.91121 17.5498 1.56059 17.531 1.21184 17.4898C0.986837 17.4598 0.771212 17.591 0.696212 17.8048C0.619337 18.0185 0.703712 18.2566 0.896837 18.3748C3.06246 19.7641 5.63309 20.5798 8.39684 20.5798C12.8762 20.5798 16.39 18.7085 18.7468 16.0348C21.1037 13.361 22.3318 9.88852 22.3318 6.64477C22.3318 6.50789 22.3206 6.37477 22.3168 6.23977C23.1962 5.56664 23.9818 4.77727 24.5968 3.85477C24.7187 3.67664 24.7056 3.43852 24.565 3.27352C24.4262 3.10852 24.1918 3.05789 23.9968 3.14977C23.7493 3.26039 23.4606 3.27164 23.2018 3.35977C23.5431 2.90414 23.8356 2.41289 24.0118 1.85977C24.0718 1.67039 24.0062 1.46227 23.8506 1.33852C23.695 1.21664 23.4775 1.20164 23.3068 1.30477C22.4875 1.79039 21.58 2.13164 20.6218 2.33977C19.6918 1.46977 18.4675 0.884766 17.0968 0.884766ZM17.0968 1.84477C18.3212 1.84477 19.4275 2.36789 20.2018 3.19477C20.3181 3.31477 20.4887 3.36539 20.6518 3.32977C21.2781 3.20602 21.8725 3.02414 22.4518 2.78977C22.1181 3.23977 21.7056 3.62414 21.2218 3.91477C21.0025 4.02164 20.8993 4.27477 20.98 4.50539C21.0587 4.73414 21.2987 4.86727 21.5368 4.81477C22.0168 4.75664 22.4443 4.56164 22.9018 4.43977C22.4912 4.88414 22.0412 5.28539 21.5518 5.63977C21.4187 5.73727 21.3456 5.89477 21.3568 6.05977C21.3643 6.25477 21.3718 6.44789 21.3718 6.64477C21.3718 9.64477 20.2206 12.9016 18.0268 15.3898C15.8331 17.8779 12.6118 19.6198 8.39684 19.6198C6.48246 19.6198 4.67496 19.196 3.04184 18.4498C5.06684 18.2941 6.93434 17.5779 8.44184 16.3948C8.59934 16.2691 8.66121 16.0591 8.59746 15.8679C8.53371 15.6766 8.35746 15.5454 8.15684 15.5398C6.57434 15.5116 5.24871 14.591 4.54184 13.2898C4.56809 13.2898 4.59059 13.2898 4.61684 13.2898C5.09121 13.2898 5.55996 13.2298 5.99684 13.1098C6.20684 13.0479 6.35121 12.8529 6.34371 12.6335C6.33621 12.4141 6.18059 12.2266 5.96684 12.1798C4.25871 11.8348 2.97809 10.4435 2.68184 8.71477C3.16559 8.88164 3.66059 9.01289 4.19684 9.02977C4.41621 9.04289 4.61496 8.90602 4.68246 8.69789C4.74996 8.48977 4.66746 8.26102 4.48184 8.14477C3.34184 7.38164 2.59184 6.08227 2.59184 4.60477C2.59184 4.05727 2.73434 3.55477 2.92184 3.07477C5.32184 5.70914 8.68184 7.45852 12.4768 7.64977C12.6268 7.65727 12.7731 7.59539 12.8706 7.48102C12.9681 7.36477 13.0056 7.21102 12.9718 7.06477C12.8987 6.75352 12.8518 6.42352 12.8518 6.08977C12.8518 3.73852 14.7456 1.84477 17.0968 1.84477Z" fill="black"/>
<path d="M17.0968 0.884766C14.2262 0.884766 11.8918 3.21914 11.8918 6.08977C11.8918 6.26227 11.935 6.43102 11.9518 6.59977C8.40246 6.26039 5.26371 4.55039 3.13184 1.93477C3.03246 1.80914 2.87871 1.74164 2.71746 1.75289C2.55809 1.76414 2.41559 1.85602 2.33684 1.99477C1.88871 2.76539 1.63184 3.65227 1.63184 4.60477C1.63184 5.75789 2.04434 6.81352 2.68184 7.67977C2.55809 7.62539 2.42309 7.59539 2.30684 7.52977C2.15871 7.45102 1.98059 7.45477 1.83621 7.54102C1.69184 7.62727 1.60371 7.78289 1.60184 7.94977V8.00977C1.60184 9.77789 2.51684 11.3135 3.86684 12.2548C3.85184 12.2529 3.83684 12.2585 3.82184 12.2548C3.65684 12.2266 3.48996 12.2848 3.37934 12.4104C3.26871 12.536 3.23309 12.7104 3.28184 12.8698C3.81809 14.5366 5.18684 15.8098 6.88184 16.2748C5.53184 17.0773 3.96621 17.5498 2.27684 17.5498C1.91121 17.5498 1.56059 17.531 1.21184 17.4898C0.986837 17.4598 0.771212 17.591 0.696212 17.8048C0.619337 18.0185 0.703712 18.2566 0.896837 18.3748C3.06246 19.7641 5.63309 20.5798 8.39684 20.5798C12.8762 20.5798 16.39 18.7085 18.7468 16.0348C21.1037 13.361 22.3318 9.88852 22.3318 6.64477C22.3318 6.50789 22.3206 6.37477 22.3168 6.23977C23.1962 5.56664 23.9818 4.77727 24.5968 3.85477C24.7187 3.67664 24.7056 3.43852 24.565 3.27352C24.4262 3.10852 24.1918 3.05789 23.9968 3.14977C23.7493 3.26039 23.4606 3.27164 23.2018 3.35977C23.5431 2.90414 23.8356 2.41289 24.0118 1.85977C24.0718 1.67039 24.0062 1.46227 23.8506 1.33852C23.695 1.21664 23.4775 1.20164 23.3068 1.30477C22.4875 1.79039 21.58 2.13164 20.6218 2.33977C19.6918 1.46977 18.4675 0.884766 17.0968 0.884766ZM17.0968 1.84477C18.3212 1.84477 19.4275 2.36789 20.2018 3.19477C20.3181 3.31477 20.4887 3.36539 20.6518 3.32977C21.2781 3.20602 21.8725 3.02414 22.4518 2.78977C22.1181 3.23977 21.7056 3.62414 21.2218 3.91477C21.0025 4.02164 20.8993 4.27477 20.98 4.50539C21.0587 4.73414 21.2987 4.86727 21.5368 4.81477C22.0168 4.75664 22.4443 4.56164 22.9018 4.43977C22.4912 4.88414 22.0412 5.28539 21.5518 5.63977C21.4187 5.73727 21.3456 5.89477 21.3568 6.05977C21.3643 6.25477 21.3718 6.44789 21.3718 6.64477C21.3718 9.64477 20.2206 12.9016 18.0268 15.3898C15.8331 17.8779 12.6118 19.6198 8.39684 19.6198C6.48246 19.6198 4.67496 19.196 3.04184 18.4498C5.06684 18.2941 6.93434 17.5779 8.44184 16.3948C8.59934 16.2691 8.66121 16.0591 8.59746 15.8679C8.53371 15.6766 8.35746 15.5454 8.15684 15.5398C6.57434 15.5116 5.24871 14.591 4.54184 13.2898C4.56809 13.2898 4.59059 13.2898 4.61684 13.2898C5.09121 13.2898 5.55996 13.2298 5.99684 13.1098C6.20684 13.0479 6.35121 12.8529 6.34371 12.6335C6.33621 12.4141 6.18059 12.2266 5.96684 12.1798C4.25871 11.8348 2.97809 10.4435 2.68184 8.71477C3.16559 8.88164 3.66059 9.01289 4.19684 9.02977C4.41621 9.04289 4.61496 8.90602 4.68246 8.69789C4.74996 8.48977 4.66746 8.26102 4.48184 8.14477C3.34184 7.38164 2.59184 6.08227 2.59184 4.60477C2.59184 4.05727 2.73434 3.55477 2.92184 3.07477C5.32184 5.70914 8.68184 7.45852 12.4768 7.64977C12.6268 7.65727 12.7731 7.59539 12.8706 7.48102C12.9681 7.36477 13.0056 7.21102 12.9718 7.06477C12.8987 6.75352 12.8518 6.42352 12.8518 6.08977C12.8518 3.73852 14.7456 1.84477 17.0968 1.84477Z" fill="white"/>
</svg>
