<svg width="36" height="36" viewBox="0 0 36 36" fill="none" xmlns="http://www.w3.org/2000/svg">
<path d="M9.88882 0.380859C4.44474 0.380859 0.015625 4.80997 0.015625 10.2541V26.0512C0.015625 31.4952 4.44474 35.9244 9.88882 35.9244H25.6859C31.13 35.9244 35.5591 31.4952 35.5591 26.0512V10.2541C35.5591 4.80997 31.13 0.380859 25.6859 0.380859H9.88882ZM9.88882 4.33014H25.6859C28.952 4.33014 31.6098 6.988 31.6098 10.2541V26.0512C31.6098 29.3172 28.952 31.9751 25.6859 31.9751H9.88882C6.62277 31.9751 3.9649 29.3172 3.9649 26.0512V10.2541C3.9649 6.988 6.62277 4.33014 9.88882 4.33014ZM27.6606 6.30478C27.1369 6.30478 26.6346 6.51282 26.2643 6.88313C25.894 7.25345 25.6859 7.75571 25.6859 8.27941C25.6859 8.80312 25.894 9.30538 26.2643 9.67569C26.6346 10.046 27.1369 10.2541 27.6606 10.2541C28.1843 10.2541 28.6865 10.046 29.0569 9.67569C29.4272 9.30538 29.6352 8.80312 29.6352 8.27941C29.6352 7.75571 29.4272 7.25345 29.0569 6.88313C28.6865 6.51282 28.1843 6.30478 27.6606 6.30478ZM17.7874 8.27941C12.3433 8.27941 7.91418 12.7085 7.91418 18.1526C7.91418 23.5967 12.3433 28.0258 17.7874 28.0258C23.2315 28.0258 27.6606 23.5967 27.6606 18.1526C27.6606 12.7085 23.2315 8.27941 17.7874 8.27941ZM17.7874 12.2287C21.0534 12.2287 23.7113 14.8866 23.7113 18.1526C23.7113 21.4187 21.0534 24.0765 17.7874 24.0765C14.5213 24.0765 11.8635 21.4187 11.8635 18.1526C11.8635 14.8866 14.5213 12.2287 17.7874 12.2287Z" fill="black"/>
<path d="M9.88882 0.380859C4.44474 0.380859 0.015625 4.80997 0.015625 10.2541V26.0512C0.015625 31.4952 4.44474 35.9244 9.88882 35.9244H25.6859C31.13 35.9244 35.5591 31.4952 35.5591 26.0512V10.2541C35.5591 4.80997 31.13 0.380859 25.6859 0.380859H9.88882ZM9.88882 4.33014H25.6859C28.952 4.33014 31.6098 6.988 31.6098 10.2541V26.0512C31.6098 29.3172 28.952 31.9751 25.6859 31.9751H9.88882C6.62277 31.9751 3.9649 29.3172 3.9649 26.0512V10.2541C3.9649 6.988 6.62277 4.33014 9.88882 4.33014ZM27.6606 6.30478C27.1369 6.30478 26.6346 6.51282 26.2643 6.88313C25.894 7.25345 25.6859 7.75571 25.6859 8.27941C25.6859 8.80312 25.894 9.30538 26.2643 9.67569C26.6346 10.046 27.1369 10.2541 27.6606 10.2541C28.1843 10.2541 28.6865 10.046 29.0569 9.67569C29.4272 9.30538 29.6352 8.80312 29.6352 8.27941C29.6352 7.75571 29.4272 7.25345 29.0569 6.88313C28.6865 6.51282 28.1843 6.30478 27.6606 6.30478ZM17.7874 8.27941C12.3433 8.27941 7.91418 12.7085 7.91418 18.1526C7.91418 23.5967 12.3433 28.0258 17.7874 28.0258C23.2315 28.0258 27.6606 23.5967 27.6606 18.1526C27.6606 12.7085 23.2315 8.27941 17.7874 8.27941ZM17.7874 12.2287C21.0534 12.2287 23.7113 14.8866 23.7113 18.1526C23.7113 21.4187 21.0534 24.0765 17.7874 24.0765C14.5213 24.0765 11.8635 21.4187 11.8635 18.1526C11.8635 14.8866 14.5213 12.2287 17.7874 12.2287Z" fill="#5195D4"/>
<path d="M9.88882 0.380859C4.44474 0.380859 0.015625 4.80997 0.015625 10.2541V26.0512C0.015625 31.4952 4.44474 35.9244 9.88882 35.9244H25.6859C31.13 35.9244 35.5591 31.4952 35.5591 26.0512V10.2541C35.5591 4.80997 31.13 0.380859 25.6859 0.380859H9.88882ZM9.88882 4.33014H25.6859C28.952 4.33014 31.6098 6.988 31.6098 10.2541V26.0512C31.6098 29.3172 28.952 31.9751 25.6859 31.9751H9.88882C6.62277 31.9751 3.9649 29.3172 3.9649 26.0512V10.2541C3.9649 6.988 6.62277 4.33014 9.88882 4.33014ZM27.6606 6.30478C27.1369 6.30478 26.6346 6.51282 26.2643 6.88313C25.894 7.25345 25.6859 7.75571 25.6859 8.27941C25.6859 8.80312 25.894 9.30538 26.2643 9.67569C26.6346 10.046 27.1369 10.2541 27.6606 10.2541C28.1843 10.2541 28.6865 10.046 29.0569 9.67569C29.4272 9.30538 29.6352 8.80312 29.6352 8.27941C29.6352 7.75571 29.4272 7.25345 29.0569 6.88313C28.6865 6.51282 28.1843 6.30478 27.6606 6.30478ZM17.7874 8.27941C12.3433 8.27941 7.91418 12.7085 7.91418 18.1526C7.91418 23.5967 12.3433 28.0258 17.7874 28.0258C23.2315 28.0258 27.6606 23.5967 27.6606 18.1526C27.6606 12.7085 23.2315 8.27941 17.7874 8.27941ZM17.7874 12.2287C21.0534 12.2287 23.7113 14.8866 23.7113 18.1526C23.7113 21.4187 21.0534 24.0765 17.7874 24.0765C14.5213 24.0765 11.8635 21.4187 11.8635 18.1526C11.8635 14.8866 14.5213 12.2287 17.7874 12.2287Z" fill="#3D6081"/>
<path d="M9.88882 0.380859C4.44474 0.380859 0.015625 4.80997 0.015625 10.2541V26.0512C0.015625 31.4952 4.44474 35.9244 9.88882 35.9244H25.6859C31.13 35.9244 35.5591 31.4952 35.5591 26.0512V10.2541C35.5591 4.80997 31.13 0.380859 25.6859 0.380859H9.88882ZM9.88882 4.33014H25.6859C28.952 4.33014 31.6098 6.988 31.6098 10.2541V26.0512C31.6098 29.3172 28.952 31.9751 25.6859 31.9751H9.88882C6.62277 31.9751 3.9649 29.3172 3.9649 26.0512V10.2541C3.9649 6.988 6.62277 4.33014 9.88882 4.33014ZM27.6606 6.30478C27.1369 6.30478 26.6346 6.51282 26.2643 6.88313C25.894 7.25345 25.6859 7.75571 25.6859 8.27941C25.6859 8.80312 25.894 9.30538 26.2643 9.67569C26.6346 10.046 27.1369 10.2541 27.6606 10.2541C28.1843 10.2541 28.6865 10.046 29.0569 9.67569C29.4272 9.30538 29.6352 8.80312 29.6352 8.27941C29.6352 7.75571 29.4272 7.25345 29.0569 6.88313C28.6865 6.51282 28.1843 6.30478 27.6606 6.30478ZM17.7874 8.27941C12.3433 8.27941 7.91418 12.7085 7.91418 18.1526C7.91418 23.5967 12.3433 28.0258 17.7874 28.0258C23.2315 28.0258 27.6606 23.5967 27.6606 18.1526C27.6606 12.7085 23.2315 8.27941 17.7874 8.27941ZM17.7874 12.2287C21.0534 12.2287 23.7113 14.8866 23.7113 18.1526C23.7113 21.4187 21.0534 24.0765 17.7874 24.0765C14.5213 24.0765 11.8635 21.4187 11.8635 18.1526C11.8635 14.8866 14.5213 12.2287 17.7874 12.2287Z" fill="white"/>
<path d="M9.88882 0.380859C4.44474 0.380859 0.015625 4.80997 0.015625 10.2541V26.0512C0.015625 31.4952 4.44474 35.9244 9.88882 35.9244H25.6859C31.13 35.9244 35.5591 31.4952 35.5591 26.0512V10.2541C35.5591 4.80997 31.13 0.380859 25.6859 0.380859H9.88882ZM9.88882 4.33014H25.6859C28.952 4.33014 31.6098 6.988 31.6098 10.2541V26.0512C31.6098 29.3172 28.952 31.9751 25.6859 31.9751H9.88882C6.62277 31.9751 3.9649 29.3172 3.9649 26.0512V10.2541C3.9649 6.988 6.62277 4.33014 9.88882 4.33014ZM27.6606 6.30478C27.1369 6.30478 26.6346 6.51282 26.2643 6.88313C25.894 7.25345 25.6859 7.75571 25.6859 8.27941C25.6859 8.80312 25.894 9.30538 26.2643 9.67569C26.6346 10.046 27.1369 10.2541 27.6606 10.2541C28.1843 10.2541 28.6865 10.046 29.0569 9.67569C29.4272 9.30538 29.6352 8.80312 29.6352 8.27941C29.6352 7.75571 29.4272 7.25345 29.0569 6.88313C28.6865 6.51282 28.1843 6.30478 27.6606 6.30478ZM17.7874 8.27941C12.3433 8.27941 7.91418 12.7085 7.91418 18.1526C7.91418 23.5967 12.3433 28.0258 17.7874 28.0258C23.2315 28.0258 27.6606 23.5967 27.6606 18.1526C27.6606 12.7085 23.2315 8.27941 17.7874 8.27941ZM17.7874 12.2287C21.0534 12.2287 23.7113 14.8866 23.7113 18.1526C23.7113 21.4187 21.0534 24.0765 17.7874 24.0765C14.5213 24.0765 11.8635 21.4187 11.8635 18.1526C11.8635 14.8866 14.5213 12.2287 17.7874 12.2287Z" fill="#3D6081"/>
</svg>
