<svg width="34" height="34" viewBox="0 0 34 34" fill="none" xmlns="http://www.w3.org/2000/svg">
<path d="M17.0077 0.802734C7.98645 0.802734 0.657715 8.13147 0.657715 17.1527C0.657715 20.0525 1.45296 22.7586 2.77922 25.1209L0.684095 32.6003C0.650623 32.72 0.649111 32.8463 0.679709 32.9668C0.710306 33.0872 0.771945 33.1976 0.858479 33.2868C0.945012 33.376 1.05342 33.4409 1.17289 33.4752C1.29235 33.5094 1.41871 33.5117 1.53936 33.4819L9.3381 31.5492C11.6297 32.7726 14.2301 33.5028 17.0077 33.5028C26.029 33.5028 33.3577 26.174 33.3577 17.1527C33.3577 8.13147 26.029 0.802734 17.0077 0.802734ZM17.0077 2.22447C25.2606 2.22447 31.936 8.89987 31.936 17.1527C31.936 25.4056 25.2606 32.081 17.0077 32.081C14.3619 32.081 11.8839 31.3912 9.72964 30.1858C9.57208 30.0978 9.38694 30.073 9.21176 30.1164L2.38213 31.8089L4.21345 25.275C4.23966 25.1827 4.24689 25.086 4.23472 24.9908C4.22255 24.8955 4.19123 24.8038 4.14264 24.721C2.83347 22.501 2.07945 19.9181 2.07945 17.1527C2.07945 8.89987 8.75485 2.22447 17.0077 2.22447ZM11.0667 8.6223C10.611 8.6223 9.96019 8.79184 9.42557 9.36788C9.10446 9.71388 7.76641 11.0176 7.76641 13.3096C7.76641 15.6992 9.42373 17.7611 9.62412 18.0261H9.62551V18.0274C9.6065 18.0025 9.87985 18.3983 10.2447 18.873C10.6096 19.3477 11.1199 19.9711 11.7609 20.646C13.0429 21.9958 14.8455 23.5558 17.0827 24.51C18.113 24.9487 18.9258 25.2136 19.5416 25.4069C20.6828 25.7652 21.7223 25.7108 22.5031 25.5957C23.0875 25.5096 23.7303 25.229 24.3663 24.8265C25.0023 24.424 25.6257 23.9236 25.9005 23.1632C26.0975 22.6181 26.1976 22.1143 26.2338 21.6998C26.2519 21.4926 26.2542 21.3096 26.2407 21.1403C26.2272 20.9709 26.2416 20.8412 26.0838 20.5821C25.7529 20.0387 25.378 20.0246 24.987 19.831C24.7697 19.7235 24.151 19.4214 23.5305 19.1257C22.9107 18.8303 22.374 18.5688 22.0435 18.4509C21.8347 18.3758 21.5797 18.2676 21.2119 18.3093C20.844 18.351 20.4807 18.6164 20.2691 18.9299C20.0686 19.2271 19.2615 20.1799 19.0154 20.46C19.0121 20.458 19.0335 20.4678 18.9362 20.4197C18.6319 20.2691 18.2597 20.141 17.7089 19.8504C17.1581 19.5599 16.4691 19.1308 15.7151 18.4662V18.4648C14.5929 17.4769 13.8069 16.2365 13.5589 15.8199C13.5756 15.8 13.5569 15.8241 13.5922 15.7893L13.5936 15.7879C13.847 15.5383 14.0716 15.2402 14.2614 15.0215C14.5305 14.7115 14.6493 14.4382 14.7779 14.1829C15.0343 13.6741 14.8916 13.1141 14.7432 12.8195V12.8181C14.7535 12.8385 14.663 12.6388 14.5655 12.4085C14.4677 12.1776 14.3431 11.8781 14.2101 11.5588C13.9439 10.9202 13.6467 10.2039 13.47 9.78441V9.78302C13.2619 9.28888 12.9802 8.93289 12.612 8.76115C12.2438 8.5894 11.9184 8.63823 11.9053 8.63758H11.9039C11.6411 8.62545 11.3528 8.6223 11.0667 8.6223ZM11.0667 10.044C11.3408 10.044 11.611 10.0474 11.8373 10.0579C12.0701 10.0695 12.0556 10.0705 12.0108 10.0496C11.9653 10.0284 12.027 10.0215 12.1594 10.3356C12.3324 10.7464 12.631 11.4652 12.898 12.1058C13.0315 12.4261 13.1564 12.7267 13.2562 12.9625C13.356 13.1983 13.4101 13.3299 13.4728 13.4554V13.4568L13.4742 13.4582C13.5357 13.5795 13.5303 13.5018 13.5089 13.5442C13.3589 13.842 13.3385 13.9151 13.1868 14.0899C12.9558 14.3561 12.7201 14.6529 12.5953 14.7758C12.4862 14.883 12.2893 15.05 12.1663 15.377C12.0432 15.7044 12.1006 16.1537 12.2982 16.4891C12.5613 16.9356 13.4281 18.3465 14.7751 19.5325C15.6235 20.2803 16.4138 20.7753 17.0452 21.1083C17.6766 21.4414 18.1908 21.6359 18.3059 21.6929C18.5791 21.8281 18.8778 21.9331 19.225 21.8914C19.5723 21.8497 19.8717 21.639 20.0622 21.4235L20.0636 21.4221C20.3173 21.1346 21.0709 20.274 21.4326 19.7435C21.4479 19.7489 21.4429 19.7447 21.5631 19.788V19.7893H21.5645C21.6194 19.8089 22.3068 20.1166 22.9196 20.4086C23.5325 20.7006 24.1545 21.0041 24.3566 21.1042C24.6483 21.2485 24.7861 21.3425 24.8217 21.343C24.8241 21.4055 24.8266 21.4733 24.8176 21.5762C24.7926 21.8618 24.7163 22.2569 24.5635 22.68C24.4886 22.8872 24.0987 23.3143 23.6069 23.6255C23.1151 23.9368 22.5165 24.1566 22.2948 24.1892C21.6283 24.2875 20.8369 24.3233 19.9678 24.0504C19.3652 23.8612 18.6138 23.6164 17.6408 23.2021C15.6676 22.3605 13.9905 20.9285 12.7925 19.6672C12.1935 19.0365 11.7136 18.4494 11.3721 18.0052C11.0313 17.5619 10.8825 17.3312 10.7585 17.168L10.7571 17.1666C10.5368 16.8754 9.18815 14.9994 9.18815 13.3096C9.18815 11.5212 10.0188 10.8199 10.4683 10.3356C10.7042 10.0814 10.9622 10.044 11.0667 10.044Z" fill="black"/>
<path d="M17.0077 0.802734C7.98645 0.802734 0.657715 8.13147 0.657715 17.1527C0.657715 20.0525 1.45296 22.7586 2.77922 25.1209L0.684095 32.6003C0.650623 32.72 0.649111 32.8463 0.679709 32.9668C0.710306 33.0872 0.771945 33.1976 0.858479 33.2868C0.945012 33.376 1.05342 33.4409 1.17289 33.4752C1.29235 33.5094 1.41871 33.5117 1.53936 33.4819L9.3381 31.5492C11.6297 32.7726 14.2301 33.5028 17.0077 33.5028C26.029 33.5028 33.3577 26.174 33.3577 17.1527C33.3577 8.13147 26.029 0.802734 17.0077 0.802734ZM17.0077 2.22447C25.2606 2.22447 31.936 8.89987 31.936 17.1527C31.936 25.4056 25.2606 32.081 17.0077 32.081C14.3619 32.081 11.8839 31.3912 9.72964 30.1858C9.57208 30.0978 9.38694 30.073 9.21176 30.1164L2.38213 31.8089L4.21345 25.275C4.23966 25.1827 4.24689 25.086 4.23472 24.9908C4.22255 24.8955 4.19123 24.8038 4.14264 24.721C2.83347 22.501 2.07945 19.9181 2.07945 17.1527C2.07945 8.89987 8.75485 2.22447 17.0077 2.22447ZM11.0667 8.6223C10.611 8.6223 9.96019 8.79184 9.42557 9.36788C9.10446 9.71388 7.76641 11.0176 7.76641 13.3096C7.76641 15.6992 9.42373 17.7611 9.62412 18.0261H9.62551V18.0274C9.6065 18.0025 9.87985 18.3983 10.2447 18.873C10.6096 19.3477 11.1199 19.9711 11.7609 20.646C13.0429 21.9958 14.8455 23.5558 17.0827 24.51C18.113 24.9487 18.9258 25.2136 19.5416 25.4069C20.6828 25.7652 21.7223 25.7108 22.5031 25.5957C23.0875 25.5096 23.7303 25.229 24.3663 24.8265C25.0023 24.424 25.6257 23.9236 25.9005 23.1632C26.0975 22.6181 26.1976 22.1143 26.2338 21.6998C26.2519 21.4926 26.2542 21.3096 26.2407 21.1403C26.2272 20.9709 26.2416 20.8412 26.0838 20.5821C25.7529 20.0387 25.378 20.0246 24.987 19.831C24.7697 19.7235 24.151 19.4214 23.5305 19.1257C22.9107 18.8303 22.374 18.5688 22.0435 18.4509C21.8347 18.3758 21.5797 18.2676 21.2119 18.3093C20.844 18.351 20.4807 18.6164 20.2691 18.9299C20.0686 19.2271 19.2615 20.1799 19.0154 20.46C19.0121 20.458 19.0335 20.4678 18.9362 20.4197C18.6319 20.2691 18.2597 20.141 17.7089 19.8504C17.1581 19.5599 16.4691 19.1308 15.7151 18.4662V18.4648C14.5929 17.4769 13.8069 16.2365 13.5589 15.8199C13.5756 15.8 13.5569 15.8241 13.5922 15.7893L13.5936 15.7879C13.847 15.5383 14.0716 15.2402 14.2614 15.0215C14.5305 14.7115 14.6493 14.4382 14.7779 14.1829C15.0343 13.6741 14.8916 13.1141 14.7432 12.8195V12.8181C14.7535 12.8385 14.663 12.6388 14.5655 12.4085C14.4677 12.1776 14.3431 11.8781 14.2101 11.5588C13.9439 10.9202 13.6467 10.2039 13.47 9.78441V9.78302C13.2619 9.28888 12.9802 8.93289 12.612 8.76115C12.2438 8.5894 11.9184 8.63823 11.9053 8.63758H11.9039C11.6411 8.62545 11.3528 8.6223 11.0667 8.6223ZM11.0667 10.044C11.3408 10.044 11.611 10.0474 11.8373 10.0579C12.0701 10.0695 12.0556 10.0705 12.0108 10.0496C11.9653 10.0284 12.027 10.0215 12.1594 10.3356C12.3324 10.7464 12.631 11.4652 12.898 12.1058C13.0315 12.4261 13.1564 12.7267 13.2562 12.9625C13.356 13.1983 13.4101 13.3299 13.4728 13.4554V13.4568L13.4742 13.4582C13.5357 13.5795 13.5303 13.5018 13.5089 13.5442C13.3589 13.842 13.3385 13.9151 13.1868 14.0899C12.9558 14.3561 12.7201 14.6529 12.5953 14.7758C12.4862 14.883 12.2893 15.05 12.1663 15.377C12.0432 15.7044 12.1006 16.1537 12.2982 16.4891C12.5613 16.9356 13.4281 18.3465 14.7751 19.5325C15.6235 20.2803 16.4138 20.7753 17.0452 21.1083C17.6766 21.4414 18.1908 21.6359 18.3059 21.6929C18.5791 21.8281 18.8778 21.9331 19.225 21.8914C19.5723 21.8497 19.8717 21.639 20.0622 21.4235L20.0636 21.4221C20.3173 21.1346 21.0709 20.274 21.4326 19.7435C21.4479 19.7489 21.4429 19.7447 21.5631 19.788V19.7893H21.5645C21.6194 19.8089 22.3068 20.1166 22.9196 20.4086C23.5325 20.7006 24.1545 21.0041 24.3566 21.1042C24.6483 21.2485 24.7861 21.3425 24.8217 21.343C24.8241 21.4055 24.8266 21.4733 24.8176 21.5762C24.7926 21.8618 24.7163 22.2569 24.5635 22.68C24.4886 22.8872 24.0987 23.3143 23.6069 23.6255C23.1151 23.9368 22.5165 24.1566 22.2948 24.1892C21.6283 24.2875 20.8369 24.3233 19.9678 24.0504C19.3652 23.8612 18.6138 23.6164 17.6408 23.2021C15.6676 22.3605 13.9905 20.9285 12.7925 19.6672C12.1935 19.0365 11.7136 18.4494 11.3721 18.0052C11.0313 17.5619 10.8825 17.3312 10.7585 17.168L10.7571 17.1666C10.5368 16.8754 9.18815 14.9994 9.18815 13.3096C9.18815 11.5212 10.0188 10.8199 10.4683 10.3356C10.7042 10.0814 10.9622 10.044 11.0667 10.044Z" fill="#5195D4"/>
<path d="M17.0077 0.802734C7.98645 0.802734 0.657715 8.13147 0.657715 17.1527C0.657715 20.0525 1.45296 22.7586 2.77922 25.1209L0.684095 32.6003C0.650623 32.72 0.649111 32.8463 0.679709 32.9668C0.710306 33.0872 0.771945 33.1976 0.858479 33.2868C0.945012 33.376 1.05342 33.4409 1.17289 33.4752C1.29235 33.5094 1.41871 33.5117 1.53936 33.4819L9.3381 31.5492C11.6297 32.7726 14.2301 33.5028 17.0077 33.5028C26.029 33.5028 33.3577 26.174 33.3577 17.1527C33.3577 8.13147 26.029 0.802734 17.0077 0.802734ZM17.0077 2.22447C25.2606 2.22447 31.936 8.89987 31.936 17.1527C31.936 25.4056 25.2606 32.081 17.0077 32.081C14.3619 32.081 11.8839 31.3912 9.72964 30.1858C9.57208 30.0978 9.38694 30.073 9.21176 30.1164L2.38213 31.8089L4.21345 25.275C4.23966 25.1827 4.24689 25.086 4.23472 24.9908C4.22255 24.8955 4.19123 24.8038 4.14264 24.721C2.83347 22.501 2.07945 19.9181 2.07945 17.1527C2.07945 8.89987 8.75485 2.22447 17.0077 2.22447ZM11.0667 8.6223C10.611 8.6223 9.96019 8.79184 9.42557 9.36788C9.10446 9.71388 7.76641 11.0176 7.76641 13.3096C7.76641 15.6992 9.42373 17.7611 9.62412 18.0261H9.62551V18.0274C9.6065 18.0025 9.87985 18.3983 10.2447 18.873C10.6096 19.3477 11.1199 19.9711 11.7609 20.646C13.0429 21.9958 14.8455 23.5558 17.0827 24.51C18.113 24.9487 18.9258 25.2136 19.5416 25.4069C20.6828 25.7652 21.7223 25.7108 22.5031 25.5957C23.0875 25.5096 23.7303 25.229 24.3663 24.8265C25.0023 24.424 25.6257 23.9236 25.9005 23.1632C26.0975 22.6181 26.1976 22.1143 26.2338 21.6998C26.2519 21.4926 26.2542 21.3096 26.2407 21.1403C26.2272 20.9709 26.2416 20.8412 26.0838 20.5821C25.7529 20.0387 25.378 20.0246 24.987 19.831C24.7697 19.7235 24.151 19.4214 23.5305 19.1257C22.9107 18.8303 22.374 18.5688 22.0435 18.4509C21.8347 18.3758 21.5797 18.2676 21.2119 18.3093C20.844 18.351 20.4807 18.6164 20.2691 18.9299C20.0686 19.2271 19.2615 20.1799 19.0154 20.46C19.0121 20.458 19.0335 20.4678 18.9362 20.4197C18.6319 20.2691 18.2597 20.141 17.7089 19.8504C17.1581 19.5599 16.4691 19.1308 15.7151 18.4662V18.4648C14.5929 17.4769 13.8069 16.2365 13.5589 15.8199C13.5756 15.8 13.5569 15.8241 13.5922 15.7893L13.5936 15.7879C13.847 15.5383 14.0716 15.2402 14.2614 15.0215C14.5305 14.7115 14.6493 14.4382 14.7779 14.1829C15.0343 13.6741 14.8916 13.1141 14.7432 12.8195V12.8181C14.7535 12.8385 14.663 12.6388 14.5655 12.4085C14.4677 12.1776 14.3431 11.8781 14.2101 11.5588C13.9439 10.9202 13.6467 10.2039 13.47 9.78441V9.78302C13.2619 9.28888 12.9802 8.93289 12.612 8.76115C12.2438 8.5894 11.9184 8.63823 11.9053 8.63758H11.9039C11.6411 8.62545 11.3528 8.6223 11.0667 8.6223ZM11.0667 10.044C11.3408 10.044 11.611 10.0474 11.8373 10.0579C12.0701 10.0695 12.0556 10.0705 12.0108 10.0496C11.9653 10.0284 12.027 10.0215 12.1594 10.3356C12.3324 10.7464 12.631 11.4652 12.898 12.1058C13.0315 12.4261 13.1564 12.7267 13.2562 12.9625C13.356 13.1983 13.4101 13.3299 13.4728 13.4554V13.4568L13.4742 13.4582C13.5357 13.5795 13.5303 13.5018 13.5089 13.5442C13.3589 13.842 13.3385 13.9151 13.1868 14.0899C12.9558 14.3561 12.7201 14.6529 12.5953 14.7758C12.4862 14.883 12.2893 15.05 12.1663 15.377C12.0432 15.7044 12.1006 16.1537 12.2982 16.4891C12.5613 16.9356 13.4281 18.3465 14.7751 19.5325C15.6235 20.2803 16.4138 20.7753 17.0452 21.1083C17.6766 21.4414 18.1908 21.6359 18.3059 21.6929C18.5791 21.8281 18.8778 21.9331 19.225 21.8914C19.5723 21.8497 19.8717 21.639 20.0622 21.4235L20.0636 21.4221C20.3173 21.1346 21.0709 20.274 21.4326 19.7435C21.4479 19.7489 21.4429 19.7447 21.5631 19.788V19.7893H21.5645C21.6194 19.8089 22.3068 20.1166 22.9196 20.4086C23.5325 20.7006 24.1545 21.0041 24.3566 21.1042C24.6483 21.2485 24.7861 21.3425 24.8217 21.343C24.8241 21.4055 24.8266 21.4733 24.8176 21.5762C24.7926 21.8618 24.7163 22.2569 24.5635 22.68C24.4886 22.8872 24.0987 23.3143 23.6069 23.6255C23.1151 23.9368 22.5165 24.1566 22.2948 24.1892C21.6283 24.2875 20.8369 24.3233 19.9678 24.0504C19.3652 23.8612 18.6138 23.6164 17.6408 23.2021C15.6676 22.3605 13.9905 20.9285 12.7925 19.6672C12.1935 19.0365 11.7136 18.4494 11.3721 18.0052C11.0313 17.5619 10.8825 17.3312 10.7585 17.168L10.7571 17.1666C10.5368 16.8754 9.18815 14.9994 9.18815 13.3096C9.18815 11.5212 10.0188 10.8199 10.4683 10.3356C10.7042 10.0814 10.9622 10.044 11.0667 10.044Z" fill="#3D6081"/>
<path d="M17.0077 0.802734C7.98645 0.802734 0.657715 8.13147 0.657715 17.1527C0.657715 20.0525 1.45296 22.7586 2.77922 25.1209L0.684095 32.6003C0.650623 32.72 0.649111 32.8463 0.679709 32.9668C0.710306 33.0872 0.771945 33.1976 0.858479 33.2868C0.945012 33.376 1.05342 33.4409 1.17289 33.4752C1.29235 33.5094 1.41871 33.5117 1.53936 33.4819L9.3381 31.5492C11.6297 32.7726 14.2301 33.5028 17.0077 33.5028C26.029 33.5028 33.3577 26.174 33.3577 17.1527C33.3577 8.13147 26.029 0.802734 17.0077 0.802734ZM17.0077 2.22447C25.2606 2.22447 31.936 8.89987 31.936 17.1527C31.936 25.4056 25.2606 32.081 17.0077 32.081C14.3619 32.081 11.8839 31.3912 9.72964 30.1858C9.57208 30.0978 9.38694 30.073 9.21176 30.1164L2.38213 31.8089L4.21345 25.275C4.23966 25.1827 4.24689 25.086 4.23472 24.9908C4.22255 24.8955 4.19123 24.8038 4.14264 24.721C2.83347 22.501 2.07945 19.9181 2.07945 17.1527C2.07945 8.89987 8.75485 2.22447 17.0077 2.22447ZM11.0667 8.6223C10.611 8.6223 9.96019 8.79184 9.42557 9.36788C9.10446 9.71388 7.76641 11.0176 7.76641 13.3096C7.76641 15.6992 9.42373 17.7611 9.62412 18.0261H9.62551V18.0274C9.6065 18.0025 9.87985 18.3983 10.2447 18.873C10.6096 19.3477 11.1199 19.9711 11.7609 20.646C13.0429 21.9958 14.8455 23.5558 17.0827 24.51C18.113 24.9487 18.9258 25.2136 19.5416 25.4069C20.6828 25.7652 21.7223 25.7108 22.5031 25.5957C23.0875 25.5096 23.7303 25.229 24.3663 24.8265C25.0023 24.424 25.6257 23.9236 25.9005 23.1632C26.0975 22.6181 26.1976 22.1143 26.2338 21.6998C26.2519 21.4926 26.2542 21.3096 26.2407 21.1403C26.2272 20.9709 26.2416 20.8412 26.0838 20.5821C25.7529 20.0387 25.378 20.0246 24.987 19.831C24.7697 19.7235 24.151 19.4214 23.5305 19.1257C22.9107 18.8303 22.374 18.5688 22.0435 18.4509C21.8347 18.3758 21.5797 18.2676 21.2119 18.3093C20.844 18.351 20.4807 18.6164 20.2691 18.9299C20.0686 19.2271 19.2615 20.1799 19.0154 20.46C19.0121 20.458 19.0335 20.4678 18.9362 20.4197C18.6319 20.2691 18.2597 20.141 17.7089 19.8504C17.1581 19.5599 16.4691 19.1308 15.7151 18.4662V18.4648C14.5929 17.4769 13.8069 16.2365 13.5589 15.8199C13.5756 15.8 13.5569 15.8241 13.5922 15.7893L13.5936 15.7879C13.847 15.5383 14.0716 15.2402 14.2614 15.0215C14.5305 14.7115 14.6493 14.4382 14.7779 14.1829C15.0343 13.6741 14.8916 13.1141 14.7432 12.8195V12.8181C14.7535 12.8385 14.663 12.6388 14.5655 12.4085C14.4677 12.1776 14.3431 11.8781 14.2101 11.5588C13.9439 10.9202 13.6467 10.2039 13.47 9.78441V9.78302C13.2619 9.28888 12.9802 8.93289 12.612 8.76115C12.2438 8.5894 11.9184 8.63823 11.9053 8.63758H11.9039C11.6411 8.62545 11.3528 8.6223 11.0667 8.6223ZM11.0667 10.044C11.3408 10.044 11.611 10.0474 11.8373 10.0579C12.0701 10.0695 12.0556 10.0705 12.0108 10.0496C11.9653 10.0284 12.027 10.0215 12.1594 10.3356C12.3324 10.7464 12.631 11.4652 12.898 12.1058C13.0315 12.4261 13.1564 12.7267 13.2562 12.9625C13.356 13.1983 13.4101 13.3299 13.4728 13.4554V13.4568L13.4742 13.4582C13.5357 13.5795 13.5303 13.5018 13.5089 13.5442C13.3589 13.842 13.3385 13.9151 13.1868 14.0899C12.9558 14.3561 12.7201 14.6529 12.5953 14.7758C12.4862 14.883 12.2893 15.05 12.1663 15.377C12.0432 15.7044 12.1006 16.1537 12.2982 16.4891C12.5613 16.9356 13.4281 18.3465 14.7751 19.5325C15.6235 20.2803 16.4138 20.7753 17.0452 21.1083C17.6766 21.4414 18.1908 21.6359 18.3059 21.6929C18.5791 21.8281 18.8778 21.9331 19.225 21.8914C19.5723 21.8497 19.8717 21.639 20.0622 21.4235L20.0636 21.4221C20.3173 21.1346 21.0709 20.274 21.4326 19.7435C21.4479 19.7489 21.4429 19.7447 21.5631 19.788V19.7893H21.5645C21.6194 19.8089 22.3068 20.1166 22.9196 20.4086C23.5325 20.7006 24.1545 21.0041 24.3566 21.1042C24.6483 21.2485 24.7861 21.3425 24.8217 21.343C24.8241 21.4055 24.8266 21.4733 24.8176 21.5762C24.7926 21.8618 24.7163 22.2569 24.5635 22.68C24.4886 22.8872 24.0987 23.3143 23.6069 23.6255C23.1151 23.9368 22.5165 24.1566 22.2948 24.1892C21.6283 24.2875 20.8369 24.3233 19.9678 24.0504C19.3652 23.8612 18.6138 23.6164 17.6408 23.2021C15.6676 22.3605 13.9905 20.9285 12.7925 19.6672C12.1935 19.0365 11.7136 18.4494 11.3721 18.0052C11.0313 17.5619 10.8825 17.3312 10.7585 17.168L10.7571 17.1666C10.5368 16.8754 9.18815 14.9994 9.18815 13.3096C9.18815 11.5212 10.0188 10.8199 10.4683 10.3356C10.7042 10.0814 10.9622 10.044 11.0667 10.044Z" fill="white"/>
<path d="M17.0077 0.802734C7.98645 0.802734 0.657715 8.13147 0.657715 17.1527C0.657715 20.0525 1.45296 22.7586 2.77922 25.1209L0.684095 32.6003C0.650623 32.72 0.649111 32.8463 0.679709 32.9668C0.710306 33.0872 0.771945 33.1976 0.858479 33.2868C0.945012 33.376 1.05342 33.4409 1.17289 33.4752C1.29235 33.5094 1.41871 33.5117 1.53936 33.4819L9.3381 31.5492C11.6297 32.7726 14.2301 33.5028 17.0077 33.5028C26.029 33.5028 33.3577 26.174 33.3577 17.1527C33.3577 8.13147 26.029 0.802734 17.0077 0.802734ZM17.0077 2.22447C25.2606 2.22447 31.936 8.89987 31.936 17.1527C31.936 25.4056 25.2606 32.081 17.0077 32.081C14.3619 32.081 11.8839 31.3912 9.72964 30.1858C9.57208 30.0978 9.38694 30.073 9.21176 30.1164L2.38213 31.8089L4.21345 25.275C4.23966 25.1827 4.24689 25.086 4.23472 24.9908C4.22255 24.8955 4.19123 24.8038 4.14264 24.721C2.83347 22.501 2.07945 19.9181 2.07945 17.1527C2.07945 8.89987 8.75485 2.22447 17.0077 2.22447ZM11.0667 8.6223C10.611 8.6223 9.96019 8.79184 9.42557 9.36788C9.10446 9.71388 7.76641 11.0176 7.76641 13.3096C7.76641 15.6992 9.42373 17.7611 9.62412 18.0261H9.62551V18.0274C9.6065 18.0025 9.87985 18.3983 10.2447 18.873C10.6096 19.3477 11.1199 19.9711 11.7609 20.646C13.0429 21.9958 14.8455 23.5558 17.0827 24.51C18.113 24.9487 18.9258 25.2136 19.5416 25.4069C20.6828 25.7652 21.7223 25.7108 22.5031 25.5957C23.0875 25.5096 23.7303 25.229 24.3663 24.8265C25.0023 24.424 25.6257 23.9236 25.9005 23.1632C26.0975 22.6181 26.1976 22.1143 26.2338 21.6998C26.2519 21.4926 26.2542 21.3096 26.2407 21.1403C26.2272 20.9709 26.2416 20.8412 26.0838 20.5821C25.7529 20.0387 25.378 20.0246 24.987 19.831C24.7697 19.7235 24.151 19.4214 23.5305 19.1257C22.9107 18.8303 22.374 18.5688 22.0435 18.4509C21.8347 18.3758 21.5797 18.2676 21.2119 18.3093C20.844 18.351 20.4807 18.6164 20.2691 18.9299C20.0686 19.2271 19.2615 20.1799 19.0154 20.46C19.0121 20.458 19.0335 20.4678 18.9362 20.4197C18.6319 20.2691 18.2597 20.141 17.7089 19.8504C17.1581 19.5599 16.4691 19.1308 15.7151 18.4662V18.4648C14.5929 17.4769 13.8069 16.2365 13.5589 15.8199C13.5756 15.8 13.5569 15.8241 13.5922 15.7893L13.5936 15.7879C13.847 15.5383 14.0716 15.2402 14.2614 15.0215C14.5305 14.7115 14.6493 14.4382 14.7779 14.1829C15.0343 13.6741 14.8916 13.1141 14.7432 12.8195V12.8181C14.7535 12.8385 14.663 12.6388 14.5655 12.4085C14.4677 12.1776 14.3431 11.8781 14.2101 11.5588C13.9439 10.9202 13.6467 10.2039 13.47 9.78441V9.78302C13.2619 9.28888 12.9802 8.93289 12.612 8.76115C12.2438 8.5894 11.9184 8.63823 11.9053 8.63758H11.9039C11.6411 8.62545 11.3528 8.6223 11.0667 8.6223ZM11.0667 10.044C11.3408 10.044 11.611 10.0474 11.8373 10.0579C12.0701 10.0695 12.0556 10.0705 12.0108 10.0496C11.9653 10.0284 12.027 10.0215 12.1594 10.3356C12.3324 10.7464 12.631 11.4652 12.898 12.1058C13.0315 12.4261 13.1564 12.7267 13.2562 12.9625C13.356 13.1983 13.4101 13.3299 13.4728 13.4554V13.4568L13.4742 13.4582C13.5357 13.5795 13.5303 13.5018 13.5089 13.5442C13.3589 13.842 13.3385 13.9151 13.1868 14.0899C12.9558 14.3561 12.7201 14.6529 12.5953 14.7758C12.4862 14.883 12.2893 15.05 12.1663 15.377C12.0432 15.7044 12.1006 16.1537 12.2982 16.4891C12.5613 16.9356 13.4281 18.3465 14.7751 19.5325C15.6235 20.2803 16.4138 20.7753 17.0452 21.1083C17.6766 21.4414 18.1908 21.6359 18.3059 21.6929C18.5791 21.8281 18.8778 21.9331 19.225 21.8914C19.5723 21.8497 19.8717 21.639 20.0622 21.4235L20.0636 21.4221C20.3173 21.1346 21.0709 20.274 21.4326 19.7435C21.4479 19.7489 21.4429 19.7447 21.5631 19.788V19.7893H21.5645C21.6194 19.8089 22.3068 20.1166 22.9196 20.4086C23.5325 20.7006 24.1545 21.0041 24.3566 21.1042C24.6483 21.2485 24.7861 21.3425 24.8217 21.343C24.8241 21.4055 24.8266 21.4733 24.8176 21.5762C24.7926 21.8618 24.7163 22.2569 24.5635 22.68C24.4886 22.8872 24.0987 23.3143 23.6069 23.6255C23.1151 23.9368 22.5165 24.1566 22.2948 24.1892C21.6283 24.2875 20.8369 24.3233 19.9678 24.0504C19.3652 23.8612 18.6138 23.6164 17.6408 23.2021C15.6676 22.3605 13.9905 20.9285 12.7925 19.6672C12.1935 19.0365 11.7136 18.4494 11.3721 18.0052C11.0313 17.5619 10.8825 17.3312 10.7585 17.168L10.7571 17.1666C10.5368 16.8754 9.18815 14.9994 9.18815 13.3096C9.18815 11.5212 10.0188 10.8199 10.4683 10.3356C10.7042 10.0814 10.9622 10.044 11.0667 10.044Z" fill="#3D6081"/>
</svg>
