<svg width="34" height="34" viewBox="0 0 34 34" fill="none" xmlns="http://www.w3.org/2000/svg">
<path d="M17.0692 0.569336C8.07508 0.569336 0.719238 7.39202 0.719238 15.853C0.719238 20.4792 2.94626 24.5862 6.4062 27.3825V33.7359L7.45029 33.1805L12.5819 30.5147C14.0147 30.8979 15.5059 31.1367 17.0692 31.1367C26.0634 31.1367 33.4193 24.3141 33.4193 15.853C33.4193 7.39202 26.0634 0.569336 17.0692 0.569336ZM17.0692 1.99108C25.347 1.99108 31.9975 8.21674 31.9975 15.853C31.9975 23.4893 25.347 29.715 17.0692 29.715C15.5309 29.715 14.0425 29.4929 12.6485 29.093L12.3819 29.0263L12.1376 29.1596L7.82794 31.4033V26.7382L7.56136 26.5383C4.24582 23.9864 2.14098 20.146 2.14098 15.853C2.14098 8.21674 8.7915 1.99108 17.0692 1.99108ZM15.4476 11.7433L6.89492 20.8069L14.5812 16.4973L18.6909 20.8958L27.1325 11.7433L19.6462 15.9419L15.4476 11.7433Z" fill="black"/>
<path d="M17.0692 0.569336C8.07508 0.569336 0.719238 7.39202 0.719238 15.853C0.719238 20.4792 2.94626 24.5862 6.4062 27.3825V33.7359L7.45029 33.1805L12.5819 30.5147C14.0147 30.8979 15.5059 31.1367 17.0692 31.1367C26.0634 31.1367 33.4193 24.3141 33.4193 15.853C33.4193 7.39202 26.0634 0.569336 17.0692 0.569336ZM17.0692 1.99108C25.347 1.99108 31.9975 8.21674 31.9975 15.853C31.9975 23.4893 25.347 29.715 17.0692 29.715C15.5309 29.715 14.0425 29.4929 12.6485 29.093L12.3819 29.0263L12.1376 29.1596L7.82794 31.4033V26.7382L7.56136 26.5383C4.24582 23.9864 2.14098 20.146 2.14098 15.853C2.14098 8.21674 8.7915 1.99108 17.0692 1.99108ZM15.4476 11.7433L6.89492 20.8069L14.5812 16.4973L18.6909 20.8958L27.1325 11.7433L19.6462 15.9419L15.4476 11.7433Z" fill="#5195D4"/>
<path d="M17.0692 0.569336C8.07508 0.569336 0.719238 7.39202 0.719238 15.853C0.719238 20.4792 2.94626 24.5862 6.4062 27.3825V33.7359L7.45029 33.1805L12.5819 30.5147C14.0147 30.8979 15.5059 31.1367 17.0692 31.1367C26.0634 31.1367 33.4193 24.3141 33.4193 15.853C33.4193 7.39202 26.0634 0.569336 17.0692 0.569336ZM17.0692 1.99108C25.347 1.99108 31.9975 8.21674 31.9975 15.853C31.9975 23.4893 25.347 29.715 17.0692 29.715C15.5309 29.715 14.0425 29.4929 12.6485 29.093L12.3819 29.0263L12.1376 29.1596L7.82794 31.4033V26.7382L7.56136 26.5383C4.24582 23.9864 2.14098 20.146 2.14098 15.853C2.14098 8.21674 8.7915 1.99108 17.0692 1.99108ZM15.4476 11.7433L6.89492 20.8069L14.5812 16.4973L18.6909 20.8958L27.1325 11.7433L19.6462 15.9419L15.4476 11.7433Z" fill="#3D6081"/>
<path d="M17.0692 0.569336C8.07508 0.569336 0.719238 7.39202 0.719238 15.853C0.719238 20.4792 2.94626 24.5862 6.4062 27.3825V33.7359L7.45029 33.1805L12.5819 30.5147C14.0147 30.8979 15.5059 31.1367 17.0692 31.1367C26.0634 31.1367 33.4193 24.3141 33.4193 15.853C33.4193 7.39202 26.0634 0.569336 17.0692 0.569336ZM17.0692 1.99108C25.347 1.99108 31.9975 8.21674 31.9975 15.853C31.9975 23.4893 25.347 29.715 17.0692 29.715C15.5309 29.715 14.0425 29.4929 12.6485 29.093L12.3819 29.0263L12.1376 29.1596L7.82794 31.4033V26.7382L7.56136 26.5383C4.24582 23.9864 2.14098 20.146 2.14098 15.853C2.14098 8.21674 8.7915 1.99108 17.0692 1.99108ZM15.4476 11.7433L6.89492 20.8069L14.5812 16.4973L18.6909 20.8958L27.1325 11.7433L19.6462 15.9419L15.4476 11.7433Z" fill="white"/>
<path d="M17.0692 0.569336C8.07508 0.569336 0.719238 7.39202 0.719238 15.853C0.719238 20.4792 2.94626 24.5862 6.4062 27.3825V33.7359L7.45029 33.1805L12.5819 30.5147C14.0147 30.8979 15.5059 31.1367 17.0692 31.1367C26.0634 31.1367 33.4193 24.3141 33.4193 15.853C33.4193 7.39202 26.0634 0.569336 17.0692 0.569336ZM17.0692 1.99108C25.347 1.99108 31.9975 8.21674 31.9975 15.853C31.9975 23.4893 25.347 29.715 17.0692 29.715C15.5309 29.715 14.0425 29.4929 12.6485 29.093L12.3819 29.0263L12.1376 29.1596L7.82794 31.4033V26.7382L7.56136 26.5383C4.24582 23.9864 2.14098 20.146 2.14098 15.853C2.14098 8.21674 8.7915 1.99108 17.0692 1.99108ZM15.4476 11.7433L6.89492 20.8069L14.5812 16.4973L18.6909 20.8958L27.1325 11.7433L19.6462 15.9419L15.4476 11.7433Z" fill="#3D6081"/>
</svg>
