<svg width="36" height="30" viewBox="0 0 36 30" fill="none" xmlns="http://www.w3.org/2000/svg">
<path d="M24.689 0.568359C20.4376 0.568359 16.9805 4.02552 16.9805 8.27686C16.9805 8.53232 17.0443 8.78224 17.0693 9.03215C11.8128 8.52955 7.16435 5.99707 4.00709 2.12339C3.85992 1.93734 3.63222 1.83737 3.39341 1.85403C3.15738 1.8707 2.94634 2.00676 2.82971 2.21225C2.16605 3.35353 1.78562 4.66697 1.78562 6.0776C1.78562 7.78536 2.39653 9.34871 3.34065 10.6316C3.15738 10.5511 2.95745 10.5067 2.78528 10.4095C2.56591 10.2928 2.30211 10.2984 2.0883 10.4261C1.87448 10.5539 1.74397 10.7843 1.74119 11.0315V11.1203C1.74119 13.7389 3.09629 16.0131 5.09561 17.4071C5.0734 17.4043 5.05118 17.4126 5.02897 17.4071C4.78461 17.3654 4.53747 17.4515 4.37363 17.6376C4.2098 17.8236 4.15704 18.0819 4.22924 18.3179C5.02341 20.7865 7.0505 22.672 9.56076 23.3606C7.56144 24.5491 5.24278 25.2489 2.74085 25.2489C2.19937 25.2489 1.6801 25.2211 1.16361 25.16C0.830392 25.1156 0.511055 25.31 0.399982 25.6265C0.286132 25.9431 0.411089 26.2957 0.697103 26.4707C3.90435 28.5283 7.71139 29.7362 11.8044 29.7362C18.4383 29.7362 23.6421 26.965 27.1326 23.0052C30.6231 19.0454 32.4419 13.9027 32.4419 9.0988C32.4419 8.89609 32.4252 8.69893 32.4197 8.499C33.722 7.50212 34.8855 6.33307 35.7963 4.96687C35.9768 4.70307 35.9574 4.35041 35.7491 4.10605C35.5436 3.86169 35.1965 3.78671 34.9077 3.92278C34.5412 4.08661 34.1135 4.10327 33.7303 4.23378C34.2357 3.55901 34.6689 2.83148 34.9299 2.01231C35.0188 1.73185 34.9216 1.42362 34.6911 1.24035C34.4607 1.05986 34.1385 1.03764 33.8858 1.19037C32.6724 1.90957 31.3284 2.41496 29.9094 2.72318C28.5321 1.43473 26.7188 0.568359 24.689 0.568359ZM24.689 1.9901C26.5022 1.9901 28.1406 2.76484 29.2874 3.98942C29.4596 4.16714 29.7123 4.24211 29.9538 4.18935C30.8813 4.00608 31.7616 3.73673 32.6196 3.38962C32.1253 4.05607 31.5144 4.62532 30.798 5.05573C30.4731 5.21401 30.3204 5.58888 30.4398 5.93043C30.5564 6.2692 30.9119 6.46636 31.2645 6.38861C31.9754 6.30253 32.6085 6.01373 33.286 5.83324C32.6779 6.49135 32.0115 7.08559 31.2867 7.61041C31.0896 7.75481 30.9813 7.98806 30.9979 8.23243C31.009 8.52122 31.0202 8.80723 31.0202 9.0988C31.0202 13.5417 29.3152 18.3651 26.0663 22.05C22.8174 25.7348 18.0468 28.3145 11.8044 28.3145C8.9693 28.3145 6.29243 27.6869 3.8738 26.5818C6.87279 26.3513 9.63851 25.2905 11.8711 23.5383C12.1043 23.3523 12.196 23.0413 12.1016 22.7581C12.0072 22.4748 11.7461 22.2804 11.449 22.2721C9.10536 22.2305 7.14214 20.867 6.09527 18.9399C6.13415 18.9399 6.16747 18.9399 6.20635 18.9399C6.90888 18.9399 7.60309 18.851 8.2501 18.6733C8.5611 18.5817 8.77492 18.2929 8.76381 17.968C8.7527 17.6431 8.52223 17.3654 8.20567 17.296C5.67597 16.7851 3.77939 14.7247 3.34065 12.1644C4.05708 12.4116 4.79016 12.6059 5.58433 12.6309C5.90922 12.6504 6.20357 12.4477 6.30353 12.1394C6.4035 11.8312 6.28132 11.4924 6.00641 11.3203C4.3181 10.1901 3.20736 8.26575 3.20736 6.0776C3.20736 5.26677 3.4184 4.52257 3.69609 3.8117C7.25044 7.71316 12.2265 10.3039 17.8468 10.5872C18.069 10.5983 18.2856 10.5067 18.43 10.3373C18.5744 10.1651 18.6299 9.9374 18.5799 9.72081C18.4716 9.25986 18.4022 8.77113 18.4022 8.27686C18.4022 4.7947 21.2068 1.9901 24.689 1.9901Z" fill="black"/>
<path d="M24.689 0.568359C20.4376 0.568359 16.9805 4.02552 16.9805 8.27686C16.9805 8.53232 17.0443 8.78224 17.0693 9.03215C11.8128 8.52955 7.16435 5.99707 4.00709 2.12339C3.85992 1.93734 3.63222 1.83737 3.39341 1.85403C3.15738 1.8707 2.94634 2.00676 2.82971 2.21225C2.16605 3.35353 1.78562 4.66697 1.78562 6.0776C1.78562 7.78536 2.39653 9.34871 3.34065 10.6316C3.15738 10.5511 2.95745 10.5067 2.78528 10.4095C2.56591 10.2928 2.30211 10.2984 2.0883 10.4261C1.87448 10.5539 1.74397 10.7843 1.74119 11.0315V11.1203C1.74119 13.7389 3.09629 16.0131 5.09561 17.4071C5.0734 17.4043 5.05118 17.4126 5.02897 17.4071C4.78461 17.3654 4.53747 17.4515 4.37363 17.6376C4.2098 17.8236 4.15704 18.0819 4.22924 18.3179C5.02341 20.7865 7.0505 22.672 9.56076 23.3606C7.56144 24.5491 5.24278 25.2489 2.74085 25.2489C2.19937 25.2489 1.6801 25.2211 1.16361 25.16C0.830392 25.1156 0.511055 25.31 0.399982 25.6265C0.286132 25.9431 0.411089 26.2957 0.697103 26.4707C3.90435 28.5283 7.71139 29.7362 11.8044 29.7362C18.4383 29.7362 23.6421 26.965 27.1326 23.0052C30.6231 19.0454 32.4419 13.9027 32.4419 9.0988C32.4419 8.89609 32.4252 8.69893 32.4197 8.499C33.722 7.50212 34.8855 6.33307 35.7963 4.96687C35.9768 4.70307 35.9574 4.35041 35.7491 4.10605C35.5436 3.86169 35.1965 3.78671 34.9077 3.92278C34.5412 4.08661 34.1135 4.10327 33.7303 4.23378C34.2357 3.55901 34.6689 2.83148 34.9299 2.01231C35.0188 1.73185 34.9216 1.42362 34.6911 1.24035C34.4607 1.05986 34.1385 1.03764 33.8858 1.19037C32.6724 1.90957 31.3284 2.41496 29.9094 2.72318C28.5321 1.43473 26.7188 0.568359 24.689 0.568359ZM24.689 1.9901C26.5022 1.9901 28.1406 2.76484 29.2874 3.98942C29.4596 4.16714 29.7123 4.24211 29.9538 4.18935C30.8813 4.00608 31.7616 3.73673 32.6196 3.38962C32.1253 4.05607 31.5144 4.62532 30.798 5.05573C30.4731 5.21401 30.3204 5.58888 30.4398 5.93043C30.5564 6.2692 30.9119 6.46636 31.2645 6.38861C31.9754 6.30253 32.6085 6.01373 33.286 5.83324C32.6779 6.49135 32.0115 7.08559 31.2867 7.61041C31.0896 7.75481 30.9813 7.98806 30.9979 8.23243C31.009 8.52122 31.0202 8.80723 31.0202 9.0988C31.0202 13.5417 29.3152 18.3651 26.0663 22.05C22.8174 25.7348 18.0468 28.3145 11.8044 28.3145C8.9693 28.3145 6.29243 27.6869 3.8738 26.5818C6.87279 26.3513 9.63851 25.2905 11.8711 23.5383C12.1043 23.3523 12.196 23.0413 12.1016 22.7581C12.0072 22.4748 11.7461 22.2804 11.449 22.2721C9.10536 22.2305 7.14214 20.867 6.09527 18.9399C6.13415 18.9399 6.16747 18.9399 6.20635 18.9399C6.90888 18.9399 7.60309 18.851 8.2501 18.6733C8.5611 18.5817 8.77492 18.2929 8.76381 17.968C8.7527 17.6431 8.52223 17.3654 8.20567 17.296C5.67597 16.7851 3.77939 14.7247 3.34065 12.1644C4.05708 12.4116 4.79016 12.6059 5.58433 12.6309C5.90922 12.6504 6.20357 12.4477 6.30353 12.1394C6.4035 11.8312 6.28132 11.4924 6.00641 11.3203C4.3181 10.1901 3.20736 8.26575 3.20736 6.0776C3.20736 5.26677 3.4184 4.52257 3.69609 3.8117C7.25044 7.71316 12.2265 10.3039 17.8468 10.5872C18.069 10.5983 18.2856 10.5067 18.43 10.3373C18.5744 10.1651 18.6299 9.9374 18.5799 9.72081C18.4716 9.25986 18.4022 8.77113 18.4022 8.27686C18.4022 4.7947 21.2068 1.9901 24.689 1.9901Z" fill="#5195D4"/>
<path d="M24.689 0.568359C20.4376 0.568359 16.9805 4.02552 16.9805 8.27686C16.9805 8.53232 17.0443 8.78224 17.0693 9.03215C11.8128 8.52955 7.16435 5.99707 4.00709 2.12339C3.85992 1.93734 3.63222 1.83737 3.39341 1.85403C3.15738 1.8707 2.94634 2.00676 2.82971 2.21225C2.16605 3.35353 1.78562 4.66697 1.78562 6.0776C1.78562 7.78536 2.39653 9.34871 3.34065 10.6316C3.15738 10.5511 2.95745 10.5067 2.78528 10.4095C2.56591 10.2928 2.30211 10.2984 2.0883 10.4261C1.87448 10.5539 1.74397 10.7843 1.74119 11.0315V11.1203C1.74119 13.7389 3.09629 16.0131 5.09561 17.4071C5.0734 17.4043 5.05118 17.4126 5.02897 17.4071C4.78461 17.3654 4.53747 17.4515 4.37363 17.6376C4.2098 17.8236 4.15704 18.0819 4.22924 18.3179C5.02341 20.7865 7.0505 22.672 9.56076 23.3606C7.56144 24.5491 5.24278 25.2489 2.74085 25.2489C2.19937 25.2489 1.6801 25.2211 1.16361 25.16C0.830392 25.1156 0.511055 25.31 0.399982 25.6265C0.286132 25.9431 0.411089 26.2957 0.697103 26.4707C3.90435 28.5283 7.71139 29.7362 11.8044 29.7362C18.4383 29.7362 23.6421 26.965 27.1326 23.0052C30.6231 19.0454 32.4419 13.9027 32.4419 9.0988C32.4419 8.89609 32.4252 8.69893 32.4197 8.499C33.722 7.50212 34.8855 6.33307 35.7963 4.96687C35.9768 4.70307 35.9574 4.35041 35.7491 4.10605C35.5436 3.86169 35.1965 3.78671 34.9077 3.92278C34.5412 4.08661 34.1135 4.10327 33.7303 4.23378C34.2357 3.55901 34.6689 2.83148 34.9299 2.01231C35.0188 1.73185 34.9216 1.42362 34.6911 1.24035C34.4607 1.05986 34.1385 1.03764 33.8858 1.19037C32.6724 1.90957 31.3284 2.41496 29.9094 2.72318C28.5321 1.43473 26.7188 0.568359 24.689 0.568359ZM24.689 1.9901C26.5022 1.9901 28.1406 2.76484 29.2874 3.98942C29.4596 4.16714 29.7123 4.24211 29.9538 4.18935C30.8813 4.00608 31.7616 3.73673 32.6196 3.38962C32.1253 4.05607 31.5144 4.62532 30.798 5.05573C30.4731 5.21401 30.3204 5.58888 30.4398 5.93043C30.5564 6.2692 30.9119 6.46636 31.2645 6.38861C31.9754 6.30253 32.6085 6.01373 33.286 5.83324C32.6779 6.49135 32.0115 7.08559 31.2867 7.61041C31.0896 7.75481 30.9813 7.98806 30.9979 8.23243C31.009 8.52122 31.0202 8.80723 31.0202 9.0988C31.0202 13.5417 29.3152 18.3651 26.0663 22.05C22.8174 25.7348 18.0468 28.3145 11.8044 28.3145C8.9693 28.3145 6.29243 27.6869 3.8738 26.5818C6.87279 26.3513 9.63851 25.2905 11.8711 23.5383C12.1043 23.3523 12.196 23.0413 12.1016 22.7581C12.0072 22.4748 11.7461 22.2804 11.449 22.2721C9.10536 22.2305 7.14214 20.867 6.09527 18.9399C6.13415 18.9399 6.16747 18.9399 6.20635 18.9399C6.90888 18.9399 7.60309 18.851 8.2501 18.6733C8.5611 18.5817 8.77492 18.2929 8.76381 17.968C8.7527 17.6431 8.52223 17.3654 8.20567 17.296C5.67597 16.7851 3.77939 14.7247 3.34065 12.1644C4.05708 12.4116 4.79016 12.6059 5.58433 12.6309C5.90922 12.6504 6.20357 12.4477 6.30353 12.1394C6.4035 11.8312 6.28132 11.4924 6.00641 11.3203C4.3181 10.1901 3.20736 8.26575 3.20736 6.0776C3.20736 5.26677 3.4184 4.52257 3.69609 3.8117C7.25044 7.71316 12.2265 10.3039 17.8468 10.5872C18.069 10.5983 18.2856 10.5067 18.43 10.3373C18.5744 10.1651 18.6299 9.9374 18.5799 9.72081C18.4716 9.25986 18.4022 8.77113 18.4022 8.27686C18.4022 4.7947 21.2068 1.9901 24.689 1.9901Z" fill="#3D6081"/>
<path d="M24.689 0.568359C20.4376 0.568359 16.9805 4.02552 16.9805 8.27686C16.9805 8.53232 17.0443 8.78224 17.0693 9.03215C11.8128 8.52955 7.16435 5.99707 4.00709 2.12339C3.85992 1.93734 3.63222 1.83737 3.39341 1.85403C3.15738 1.8707 2.94634 2.00676 2.82971 2.21225C2.16605 3.35353 1.78562 4.66697 1.78562 6.0776C1.78562 7.78536 2.39653 9.34871 3.34065 10.6316C3.15738 10.5511 2.95745 10.5067 2.78528 10.4095C2.56591 10.2928 2.30211 10.2984 2.0883 10.4261C1.87448 10.5539 1.74397 10.7843 1.74119 11.0315V11.1203C1.74119 13.7389 3.09629 16.0131 5.09561 17.4071C5.0734 17.4043 5.05118 17.4126 5.02897 17.4071C4.78461 17.3654 4.53747 17.4515 4.37363 17.6376C4.2098 17.8236 4.15704 18.0819 4.22924 18.3179C5.02341 20.7865 7.0505 22.672 9.56076 23.3606C7.56144 24.5491 5.24278 25.2489 2.74085 25.2489C2.19937 25.2489 1.6801 25.2211 1.16361 25.16C0.830392 25.1156 0.511055 25.31 0.399982 25.6265C0.286132 25.9431 0.411089 26.2957 0.697103 26.4707C3.90435 28.5283 7.71139 29.7362 11.8044 29.7362C18.4383 29.7362 23.6421 26.965 27.1326 23.0052C30.6231 19.0454 32.4419 13.9027 32.4419 9.0988C32.4419 8.89609 32.4252 8.69893 32.4197 8.499C33.722 7.50212 34.8855 6.33307 35.7963 4.96687C35.9768 4.70307 35.9574 4.35041 35.7491 4.10605C35.5436 3.86169 35.1965 3.78671 34.9077 3.92278C34.5412 4.08661 34.1135 4.10327 33.7303 4.23378C34.2357 3.55901 34.6689 2.83148 34.9299 2.01231C35.0188 1.73185 34.9216 1.42362 34.6911 1.24035C34.4607 1.05986 34.1385 1.03764 33.8858 1.19037C32.6724 1.90957 31.3284 2.41496 29.9094 2.72318C28.5321 1.43473 26.7188 0.568359 24.689 0.568359ZM24.689 1.9901C26.5022 1.9901 28.1406 2.76484 29.2874 3.98942C29.4596 4.16714 29.7123 4.24211 29.9538 4.18935C30.8813 4.00608 31.7616 3.73673 32.6196 3.38962C32.1253 4.05607 31.5144 4.62532 30.798 5.05573C30.4731 5.21401 30.3204 5.58888 30.4398 5.93043C30.5564 6.2692 30.9119 6.46636 31.2645 6.38861C31.9754 6.30253 32.6085 6.01373 33.286 5.83324C32.6779 6.49135 32.0115 7.08559 31.2867 7.61041C31.0896 7.75481 30.9813 7.98806 30.9979 8.23243C31.009 8.52122 31.0202 8.80723 31.0202 9.0988C31.0202 13.5417 29.3152 18.3651 26.0663 22.05C22.8174 25.7348 18.0468 28.3145 11.8044 28.3145C8.9693 28.3145 6.29243 27.6869 3.8738 26.5818C6.87279 26.3513 9.63851 25.2905 11.8711 23.5383C12.1043 23.3523 12.196 23.0413 12.1016 22.7581C12.0072 22.4748 11.7461 22.2804 11.449 22.2721C9.10536 22.2305 7.14214 20.867 6.09527 18.9399C6.13415 18.9399 6.16747 18.9399 6.20635 18.9399C6.90888 18.9399 7.60309 18.851 8.2501 18.6733C8.5611 18.5817 8.77492 18.2929 8.76381 17.968C8.7527 17.6431 8.52223 17.3654 8.20567 17.296C5.67597 16.7851 3.77939 14.7247 3.34065 12.1644C4.05708 12.4116 4.79016 12.6059 5.58433 12.6309C5.90922 12.6504 6.20357 12.4477 6.30353 12.1394C6.4035 11.8312 6.28132 11.4924 6.00641 11.3203C4.3181 10.1901 3.20736 8.26575 3.20736 6.0776C3.20736 5.26677 3.4184 4.52257 3.69609 3.8117C7.25044 7.71316 12.2265 10.3039 17.8468 10.5872C18.069 10.5983 18.2856 10.5067 18.43 10.3373C18.5744 10.1651 18.6299 9.9374 18.5799 9.72081C18.4716 9.25986 18.4022 8.77113 18.4022 8.27686C18.4022 4.7947 21.2068 1.9901 24.689 1.9901Z" fill="white"/>
<path d="M24.689 0.568359C20.4376 0.568359 16.9805 4.02552 16.9805 8.27686C16.9805 8.53232 17.0443 8.78224 17.0693 9.03215C11.8128 8.52955 7.16435 5.99707 4.00709 2.12339C3.85992 1.93734 3.63222 1.83737 3.39341 1.85403C3.15738 1.8707 2.94634 2.00676 2.82971 2.21225C2.16605 3.35353 1.78562 4.66697 1.78562 6.0776C1.78562 7.78536 2.39653 9.34871 3.34065 10.6316C3.15738 10.5511 2.95745 10.5067 2.78528 10.4095C2.56591 10.2928 2.30211 10.2984 2.0883 10.4261C1.87448 10.5539 1.74397 10.7843 1.74119 11.0315V11.1203C1.74119 13.7389 3.09629 16.0131 5.09561 17.4071C5.0734 17.4043 5.05118 17.4126 5.02897 17.4071C4.78461 17.3654 4.53747 17.4515 4.37363 17.6376C4.2098 17.8236 4.15704 18.0819 4.22924 18.3179C5.02341 20.7865 7.0505 22.672 9.56076 23.3606C7.56144 24.5491 5.24278 25.2489 2.74085 25.2489C2.19937 25.2489 1.6801 25.2211 1.16361 25.16C0.830392 25.1156 0.511055 25.31 0.399982 25.6265C0.286132 25.9431 0.411089 26.2957 0.697103 26.4707C3.90435 28.5283 7.71139 29.7362 11.8044 29.7362C18.4383 29.7362 23.6421 26.965 27.1326 23.0052C30.6231 19.0454 32.4419 13.9027 32.4419 9.0988C32.4419 8.89609 32.4252 8.69893 32.4197 8.499C33.722 7.50212 34.8855 6.33307 35.7963 4.96687C35.9768 4.70307 35.9574 4.35041 35.7491 4.10605C35.5436 3.86169 35.1965 3.78671 34.9077 3.92278C34.5412 4.08661 34.1135 4.10327 33.7303 4.23378C34.2357 3.55901 34.6689 2.83148 34.9299 2.01231C35.0188 1.73185 34.9216 1.42362 34.6911 1.24035C34.4607 1.05986 34.1385 1.03764 33.8858 1.19037C32.6724 1.90957 31.3284 2.41496 29.9094 2.72318C28.5321 1.43473 26.7188 0.568359 24.689 0.568359ZM24.689 1.9901C26.5022 1.9901 28.1406 2.76484 29.2874 3.98942C29.4596 4.16714 29.7123 4.24211 29.9538 4.18935C30.8813 4.00608 31.7616 3.73673 32.6196 3.38962C32.1253 4.05607 31.5144 4.62532 30.798 5.05573C30.4731 5.21401 30.3204 5.58888 30.4398 5.93043C30.5564 6.2692 30.9119 6.46636 31.2645 6.38861C31.9754 6.30253 32.6085 6.01373 33.286 5.83324C32.6779 6.49135 32.0115 7.08559 31.2867 7.61041C31.0896 7.75481 30.9813 7.98806 30.9979 8.23243C31.009 8.52122 31.0202 8.80723 31.0202 9.0988C31.0202 13.5417 29.3152 18.3651 26.0663 22.05C22.8174 25.7348 18.0468 28.3145 11.8044 28.3145C8.9693 28.3145 6.29243 27.6869 3.8738 26.5818C6.87279 26.3513 9.63851 25.2905 11.8711 23.5383C12.1043 23.3523 12.196 23.0413 12.1016 22.7581C12.0072 22.4748 11.7461 22.2804 11.449 22.2721C9.10536 22.2305 7.14214 20.867 6.09527 18.9399C6.13415 18.9399 6.16747 18.9399 6.20635 18.9399C6.90888 18.9399 7.60309 18.851 8.2501 18.6733C8.5611 18.5817 8.77492 18.2929 8.76381 17.968C8.7527 17.6431 8.52223 17.3654 8.20567 17.296C5.67597 16.7851 3.77939 14.7247 3.34065 12.1644C4.05708 12.4116 4.79016 12.6059 5.58433 12.6309C5.90922 12.6504 6.20357 12.4477 6.30353 12.1394C6.4035 11.8312 6.28132 11.4924 6.00641 11.3203C4.3181 10.1901 3.20736 8.26575 3.20736 6.0776C3.20736 5.26677 3.4184 4.52257 3.69609 3.8117C7.25044 7.71316 12.2265 10.3039 17.8468 10.5872C18.069 10.5983 18.2856 10.5067 18.43 10.3373C18.5744 10.1651 18.6299 9.9374 18.5799 9.72081C18.4716 9.25986 18.4022 8.77113 18.4022 8.27686C18.4022 4.7947 21.2068 1.9901 24.689 1.9901Z" fill="#3D6081"/>
</svg>
