<svg width="22" height="22" viewBox="0 0 22 22" fill="none" xmlns="http://www.w3.org/2000/svg">
<path d="M10.7944 0.341797C4.96792 0.341797 0.234375 5.07535 0.234375 10.9018C0.234375 16.191 4.13559 20.5682 9.21656 21.3315L9.76781 21.4149V13.0937H7.27313V11.4043H9.76781V9.16086C9.76781 7.77938 10.0993 6.86952 10.6481 6.29867C11.1969 5.72783 12.0078 5.43992 13.1363 5.43992C14.0386 5.43992 14.3896 5.49459 14.7234 5.53555V6.91836H13.5488C12.8822 6.91836 12.3354 7.29023 12.0516 7.78555C11.7677 8.28086 11.6794 8.87227 11.6794 9.47492V11.4034H14.6184L14.3569 13.0927H11.6794V21.428L12.2241 21.354C17.3773 20.6551 21.3544 16.2427 21.3544 10.9018C21.3544 5.07535 16.6208 0.341797 10.7944 0.341797ZM10.7944 1.3018C16.102 1.3018 20.3944 5.59417 20.3944 10.9018C20.3944 15.5721 17.0516 19.4131 12.6394 20.2777V14.0527H15.18L15.7378 10.4434H12.6394V9.47492C12.6394 8.97694 12.7305 8.53074 12.8841 8.26273C13.0376 7.99473 13.1857 7.87836 13.5488 7.87836H15.6834V4.66648L15.2672 4.61023C14.9793 4.57128 14.322 4.47992 13.1363 4.47992C11.8388 4.47992 10.725 4.83337 9.95625 5.63305C9.18745 6.43272 8.80781 7.62346 8.80781 9.16086V10.4443H6.31312V14.0537H8.80781V20.2477C4.46653 19.3281 1.19438 15.5215 1.19438 10.9018C1.19438 5.59417 5.48675 1.3018 10.7944 1.3018Z" fill="black"/>
<path d="M10.7944 0.341797C4.96792 0.341797 0.234375 5.07535 0.234375 10.9018C0.234375 16.191 4.13559 20.5682 9.21656 21.3315L9.76781 21.4149V13.0937H7.27313V11.4043H9.76781V9.16086C9.76781 7.77938 10.0993 6.86952 10.6481 6.29867C11.1969 5.72783 12.0078 5.43992 13.1363 5.43992C14.0386 5.43992 14.3896 5.49459 14.7234 5.53555V6.91836H13.5488C12.8822 6.91836 12.3354 7.29023 12.0516 7.78555C11.7677 8.28086 11.6794 8.87227 11.6794 9.47492V11.4034H14.6184L14.3569 13.0927H11.6794V21.428L12.2241 21.354C17.3773 20.6551 21.3544 16.2427 21.3544 10.9018C21.3544 5.07535 16.6208 0.341797 10.7944 0.341797ZM10.7944 1.3018C16.102 1.3018 20.3944 5.59417 20.3944 10.9018C20.3944 15.5721 17.0516 19.4131 12.6394 20.2777V14.0527H15.18L15.7378 10.4434H12.6394V9.47492C12.6394 8.97694 12.7305 8.53074 12.8841 8.26273C13.0376 7.99473 13.1857 7.87836 13.5488 7.87836H15.6834V4.66648L15.2672 4.61023C14.9793 4.57128 14.322 4.47992 13.1363 4.47992C11.8388 4.47992 10.725 4.83337 9.95625 5.63305C9.18745 6.43272 8.80781 7.62346 8.80781 9.16086V10.4443H6.31312V14.0537H8.80781V20.2477C4.46653 19.3281 1.19438 15.5215 1.19438 10.9018C1.19438 5.59417 5.48675 1.3018 10.7944 1.3018Z" fill="white"/>
</svg>
