<svg width="23" height="23" viewBox="0 0 23 23" fill="none" xmlns="http://www.w3.org/2000/svg">
<path d="M11.1103 0.341797C5.01889 0.341797 0.0703125 5.29037 0.0703125 11.3818C0.0703125 13.3398 0.607282 15.167 1.50281 16.7621L0.088125 21.8124C0.0655241 21.8932 0.0645029 21.9786 0.0851633 22.0599C0.105824 22.1412 0.147444 22.2157 0.205874 22.276C0.264304 22.3362 0.337503 22.3801 0.418171 22.4032C0.49884 22.4263 0.58416 22.4279 0.665625 22.4077L5.93156 21.1027C7.47893 21.9288 9.23476 22.4218 11.1103 22.4218C17.2017 22.4218 22.1503 17.4732 22.1503 11.3818C22.1503 5.29037 17.2017 0.341797 11.1103 0.341797ZM11.1103 1.3018C16.6829 1.3018 21.1903 5.80922 21.1903 11.3818C21.1903 16.9544 16.6829 21.4618 11.1103 21.4618C9.32376 21.4618 7.65053 20.996 6.19594 20.1821C6.08955 20.1227 5.96454 20.1059 5.84625 20.1352L1.23469 21.278L2.47125 16.8662C2.48894 16.8038 2.49383 16.7385 2.48561 16.6742C2.4774 16.61 2.45625 16.548 2.42344 16.4921C1.53944 14.9931 1.03031 13.249 1.03031 11.3818C1.03031 5.80922 5.53774 1.3018 11.1103 1.3018ZM7.09875 5.6218C6.79105 5.6218 6.35161 5.73627 5.99062 6.12523C5.7738 6.35886 4.87031 7.23916 4.87031 8.7868C4.87031 10.4003 5.98938 11.7926 6.12469 11.9715H6.12562V11.9724C6.11279 11.9556 6.29737 12.2228 6.54375 12.5434C6.79013 12.8639 7.13467 13.2848 7.5675 13.7405C8.43317 14.652 9.65029 15.7054 11.1609 16.3496C11.8566 16.6459 12.4054 16.8247 12.8212 16.9552C13.5918 17.1972 14.2937 17.1604 14.8209 17.0827C15.2156 17.0246 15.6496 16.8351 16.0791 16.5634C16.5085 16.2916 16.9294 15.9537 17.115 15.4402C17.248 15.0722 17.3156 14.732 17.34 14.4521C17.3522 14.3122 17.3538 14.1886 17.3447 14.0743C17.3356 13.9599 17.3453 13.8724 17.2387 13.6974C17.0153 13.3305 16.7622 13.3209 16.4981 13.1902C16.3514 13.1176 15.9337 12.9136 15.5147 12.714C15.0962 12.5146 14.7338 12.3379 14.5106 12.2584C14.3696 12.2076 14.1975 12.1346 13.9491 12.1627C13.7007 12.1909 13.4553 12.3701 13.3125 12.5818C13.1771 12.7825 12.6321 13.4258 12.4659 13.6149C12.4637 13.6136 12.4781 13.6202 12.4125 13.5877C12.207 13.486 11.9557 13.3995 11.5837 13.2034C11.2118 13.0072 10.7466 12.7175 10.2375 12.2687V12.2677C9.47977 11.6007 8.949 10.7631 8.78156 10.4818C8.79284 10.4684 8.78022 10.4846 8.80406 10.4612L8.805 10.4602C8.97613 10.2917 9.12779 10.0904 9.25594 9.94273C9.43764 9.73341 9.51782 9.54889 9.60469 9.37648C9.77781 9.03289 9.68141 8.65479 9.58125 8.45586V8.45492C9.58817 8.46868 9.52707 8.33387 9.46125 8.17836C9.39524 8.0224 9.31111 7.82022 9.22125 7.60461C9.04153 7.1734 8.84089 6.68975 8.72156 6.40648V6.40555C8.581 6.07188 8.39082 5.83151 8.14219 5.71555C7.89355 5.59958 7.67389 5.63255 7.665 5.63211H7.66406C7.48663 5.62392 7.29193 5.6218 7.09875 5.6218ZM7.09875 6.5818C7.28381 6.5818 7.46626 6.58405 7.61906 6.59117C7.77626 6.59901 7.76648 6.59965 7.73625 6.58555C7.70553 6.57122 7.74721 6.56657 7.83656 6.77867C7.9534 7.05604 8.15503 7.54144 8.33531 7.97398C8.42545 8.19026 8.50981 8.39323 8.57719 8.55242C8.64456 8.71162 8.68107 8.8005 8.72344 8.88523V8.88617L8.72437 8.88711C8.76591 8.96907 8.76224 8.9166 8.74781 8.94523C8.64652 9.14627 8.63277 9.19563 8.53031 9.31367C8.3743 9.4934 8.21517 9.69383 8.13094 9.7768C8.05724 9.84919 7.92427 9.96197 7.84125 10.1827C7.7581 10.4038 7.79691 10.7072 7.93031 10.9337C8.10793 11.2352 8.69323 12.1879 9.60281 12.9887C10.1756 13.4936 10.7093 13.8278 11.1356 14.0527C11.5619 14.2776 11.9092 14.409 11.9869 14.4474C12.1714 14.5387 12.373 14.6096 12.6075 14.5815C12.842 14.5533 13.0441 14.4111 13.1728 14.2655L13.1737 14.2646C13.345 14.0704 13.8539 13.4893 14.0981 13.1312C14.1085 13.1348 14.1051 13.132 14.1862 13.1612V13.1621H14.1872C14.2242 13.1753 14.6884 13.383 15.1022 13.5802C15.516 13.7774 15.936 13.9824 16.0725 14.0499C16.2695 14.1474 16.3625 14.2109 16.3866 14.2112C16.3882 14.2534 16.3898 14.2992 16.3837 14.3687C16.3669 14.5615 16.3154 14.8283 16.2122 15.114C16.1616 15.2538 15.8983 15.5423 15.5662 15.7524C15.2342 15.9626 14.83 16.111 14.6803 16.133C14.2303 16.1994 13.6959 16.2236 13.1091 16.0393C12.7022 15.9116 12.1948 15.7462 11.5378 15.4665C10.2054 14.8983 9.073 13.9313 8.26406 13.0796C7.8596 12.6538 7.53554 12.2573 7.305 11.9574C7.07489 11.6581 6.97441 11.5023 6.89062 11.3921L6.88969 11.3912C6.74097 11.1945 5.83031 9.92781 5.83031 8.7868C5.83031 7.57923 6.39119 7.10569 6.69469 6.77867C6.85402 6.60699 7.02821 6.5818 7.09875 6.5818Z" fill="black"/>
<path d="M11.1103 0.341797C5.01889 0.341797 0.0703125 5.29037 0.0703125 11.3818C0.0703125 13.3398 0.607282 15.167 1.50281 16.7621L0.088125 21.8124C0.0655241 21.8932 0.0645029 21.9786 0.0851633 22.0599C0.105824 22.1412 0.147444 22.2157 0.205874 22.276C0.264304 22.3362 0.337503 22.3801 0.418171 22.4032C0.49884 22.4263 0.58416 22.4279 0.665625 22.4077L5.93156 21.1027C7.47893 21.9288 9.23476 22.4218 11.1103 22.4218C17.2017 22.4218 22.1503 17.4732 22.1503 11.3818C22.1503 5.29037 17.2017 0.341797 11.1103 0.341797ZM11.1103 1.3018C16.6829 1.3018 21.1903 5.80922 21.1903 11.3818C21.1903 16.9544 16.6829 21.4618 11.1103 21.4618C9.32376 21.4618 7.65053 20.996 6.19594 20.1821C6.08955 20.1227 5.96454 20.1059 5.84625 20.1352L1.23469 21.278L2.47125 16.8662C2.48894 16.8038 2.49383 16.7385 2.48561 16.6742C2.4774 16.61 2.45625 16.548 2.42344 16.4921C1.53944 14.9931 1.03031 13.249 1.03031 11.3818C1.03031 5.80922 5.53774 1.3018 11.1103 1.3018ZM7.09875 5.6218C6.79105 5.6218 6.35161 5.73627 5.99062 6.12523C5.7738 6.35886 4.87031 7.23916 4.87031 8.7868C4.87031 10.4003 5.98938 11.7926 6.12469 11.9715H6.12562V11.9724C6.11279 11.9556 6.29737 12.2228 6.54375 12.5434C6.79013 12.8639 7.13467 13.2848 7.5675 13.7405C8.43317 14.652 9.65029 15.7054 11.1609 16.3496C11.8566 16.6459 12.4054 16.8247 12.8212 16.9552C13.5918 17.1972 14.2937 17.1604 14.8209 17.0827C15.2156 17.0246 15.6496 16.8351 16.0791 16.5634C16.5085 16.2916 16.9294 15.9537 17.115 15.4402C17.248 15.0722 17.3156 14.732 17.34 14.4521C17.3522 14.3122 17.3538 14.1886 17.3447 14.0743C17.3356 13.9599 17.3453 13.8724 17.2387 13.6974C17.0153 13.3305 16.7622 13.3209 16.4981 13.1902C16.3514 13.1176 15.9337 12.9136 15.5147 12.714C15.0962 12.5146 14.7338 12.3379 14.5106 12.2584C14.3696 12.2076 14.1975 12.1346 13.9491 12.1627C13.7007 12.1909 13.4553 12.3701 13.3125 12.5818C13.1771 12.7825 12.6321 13.4258 12.4659 13.6149C12.4637 13.6136 12.4781 13.6202 12.4125 13.5877C12.207 13.486 11.9557 13.3995 11.5837 13.2034C11.2118 13.0072 10.7466 12.7175 10.2375 12.2687V12.2677C9.47977 11.6007 8.949 10.7631 8.78156 10.4818C8.79284 10.4684 8.78022 10.4846 8.80406 10.4612L8.805 10.4602C8.97613 10.2917 9.12779 10.0904 9.25594 9.94273C9.43764 9.73341 9.51782 9.54889 9.60469 9.37648C9.77781 9.03289 9.68141 8.65479 9.58125 8.45586V8.45492C9.58817 8.46868 9.52707 8.33387 9.46125 8.17836C9.39524 8.0224 9.31111 7.82022 9.22125 7.60461C9.04153 7.1734 8.84089 6.68975 8.72156 6.40648V6.40555C8.581 6.07188 8.39082 5.83151 8.14219 5.71555C7.89355 5.59958 7.67389 5.63255 7.665 5.63211H7.66406C7.48663 5.62392 7.29193 5.6218 7.09875 5.6218ZM7.09875 6.5818C7.28381 6.5818 7.46626 6.58405 7.61906 6.59117C7.77626 6.59901 7.76648 6.59965 7.73625 6.58555C7.70553 6.57122 7.74721 6.56657 7.83656 6.77867C7.9534 7.05604 8.15503 7.54144 8.33531 7.97398C8.42545 8.19026 8.50981 8.39323 8.57719 8.55242C8.64456 8.71162 8.68107 8.8005 8.72344 8.88523V8.88617L8.72437 8.88711C8.76591 8.96907 8.76224 8.9166 8.74781 8.94523C8.64652 9.14627 8.63277 9.19563 8.53031 9.31367C8.3743 9.4934 8.21517 9.69383 8.13094 9.7768C8.05724 9.84919 7.92427 9.96197 7.84125 10.1827C7.7581 10.4038 7.79691 10.7072 7.93031 10.9337C8.10793 11.2352 8.69323 12.1879 9.60281 12.9887C10.1756 13.4936 10.7093 13.8278 11.1356 14.0527C11.5619 14.2776 11.9092 14.409 11.9869 14.4474C12.1714 14.5387 12.373 14.6096 12.6075 14.5815C12.842 14.5533 13.0441 14.4111 13.1728 14.2655L13.1737 14.2646C13.345 14.0704 13.8539 13.4893 14.0981 13.1312C14.1085 13.1348 14.1051 13.132 14.1862 13.1612V13.1621H14.1872C14.2242 13.1753 14.6884 13.383 15.1022 13.5802C15.516 13.7774 15.936 13.9824 16.0725 14.0499C16.2695 14.1474 16.3625 14.2109 16.3866 14.2112C16.3882 14.2534 16.3898 14.2992 16.3837 14.3687C16.3669 14.5615 16.3154 14.8283 16.2122 15.114C16.1616 15.2538 15.8983 15.5423 15.5662 15.7524C15.2342 15.9626 14.83 16.111 14.6803 16.133C14.2303 16.1994 13.6959 16.2236 13.1091 16.0393C12.7022 15.9116 12.1948 15.7462 11.5378 15.4665C10.2054 14.8983 9.073 13.9313 8.26406 13.0796C7.8596 12.6538 7.53554 12.2573 7.305 11.9574C7.07489 11.6581 6.97441 11.5023 6.89062 11.3921L6.88969 11.3912C6.74097 11.1945 5.83031 9.92781 5.83031 8.7868C5.83031 7.57923 6.39119 7.10569 6.69469 6.77867C6.85402 6.60699 7.02821 6.5818 7.09875 6.5818Z" fill="white"/>
</svg>
