<svg width="24" height="24" viewBox="0 0 24 24" fill="none" xmlns="http://www.w3.org/2000/svg">
<path d="M12.009 0.6875C5.93587 0.6875 0.968994 5.29438 0.968994 11.0075C0.968994 14.1313 2.47274 16.9044 4.80899 18.7925V23.0825L5.51399 22.7075L8.97899 20.9075C9.94649 21.1663 10.9534 21.3275 12.009 21.3275C18.0821 21.3275 23.049 16.7206 23.049 11.0075C23.049 5.29438 18.0821 0.6875 12.009 0.6875ZM12.009 1.6475C17.5984 1.6475 22.089 5.85125 22.089 11.0075C22.089 16.1638 17.5984 20.3675 12.009 20.3675C10.9702 20.3675 9.96524 20.2175 9.02399 19.9475L8.84399 19.9025L8.67899 19.9925L5.76899 21.5075V18.3575L5.58899 18.2225C3.35024 16.4994 1.92899 13.9063 1.92899 11.0075C1.92899 5.85125 6.41962 1.6475 12.009 1.6475ZM10.914 8.2325L5.13899 14.3525L10.329 11.4425L13.104 14.4125L18.804 8.2325L13.749 11.0675L10.914 8.2325Z" fill="black"/>
<path d="M12.009 0.6875C5.93587 0.6875 0.968994 5.29438 0.968994 11.0075C0.968994 14.1313 2.47274 16.9044 4.80899 18.7925V23.0825L5.51399 22.7075L8.97899 20.9075C9.94649 21.1663 10.9534 21.3275 12.009 21.3275C18.0821 21.3275 23.049 16.7206 23.049 11.0075C23.049 5.29438 18.0821 0.6875 12.009 0.6875ZM12.009 1.6475C17.5984 1.6475 22.089 5.85125 22.089 11.0075C22.089 16.1638 17.5984 20.3675 12.009 20.3675C10.9702 20.3675 9.96524 20.2175 9.02399 19.9475L8.84399 19.9025L8.67899 19.9925L5.76899 21.5075V18.3575L5.58899 18.2225C3.35024 16.4994 1.92899 13.9063 1.92899 11.0075C1.92899 5.85125 6.41962 1.6475 12.009 1.6475ZM10.914 8.2325L5.13899 14.3525L10.329 11.4425L13.104 14.4125L18.804 8.2325L13.749 11.0675L10.914 8.2325Z" fill="white"/>
</svg>
