<svg width="19" height="19" viewBox="0 0 19 19" fill="none" xmlns="http://www.w3.org/2000/svg">
<path d="M5.61719 0.884766C2.86019 0.884766 0.617188 3.12777 0.617188 5.88477V13.8848C0.617188 16.6418 2.86019 18.8848 5.61719 18.8848H13.6172C16.3742 18.8848 18.6172 16.6418 18.6172 13.8848V5.88477C18.6172 3.12777 16.3742 0.884766 13.6172 0.884766H5.61719ZM5.61719 2.88477H13.6172C15.2712 2.88477 16.6172 4.23077 16.6172 5.88477V13.8848C16.6172 15.5388 15.2712 16.8848 13.6172 16.8848H5.61719C3.96319 16.8848 2.61719 15.5388 2.61719 13.8848V5.88477C2.61719 4.23077 3.96319 2.88477 5.61719 2.88477ZM14.6172 3.88477C14.352 3.88477 14.0976 3.99012 13.9101 4.17766C13.7225 4.3652 13.6172 4.61955 13.6172 4.88477C13.6172 5.14998 13.7225 5.40434 13.9101 5.59187C14.0976 5.77941 14.352 5.88477 14.6172 5.88477C14.8824 5.88477 15.1368 5.77941 15.3243 5.59187C15.5118 5.40434 15.6172 5.14998 15.6172 4.88477C15.6172 4.61955 15.5118 4.3652 15.3243 4.17766C15.1368 3.99012 14.8824 3.88477 14.6172 3.88477ZM9.61719 4.88477C6.86019 4.88477 4.61719 7.12777 4.61719 9.88477C4.61719 12.6418 6.86019 14.8848 9.61719 14.8848C12.3742 14.8848 14.6172 12.6418 14.6172 9.88477C14.6172 7.12777 12.3742 4.88477 9.61719 4.88477ZM9.61719 6.88477C11.2712 6.88477 12.6172 8.23077 12.6172 9.88477C12.6172 11.5388 11.2712 12.8848 9.61719 12.8848C7.96319 12.8848 6.61719 11.5388 6.61719 9.88477C6.61719 8.23077 7.96319 6.88477 9.61719 6.88477Z" fill="black"/>
<path d="M5.61719 0.884766C2.86019 0.884766 0.617188 3.12777 0.617188 5.88477V13.8848C0.617188 16.6418 2.86019 18.8848 5.61719 18.8848H13.6172C16.3742 18.8848 18.6172 16.6418 18.6172 13.8848V5.88477C18.6172 3.12777 16.3742 0.884766 13.6172 0.884766H5.61719ZM5.61719 2.88477H13.6172C15.2712 2.88477 16.6172 4.23077 16.6172 5.88477V13.8848C16.6172 15.5388 15.2712 16.8848 13.6172 16.8848H5.61719C3.96319 16.8848 2.61719 15.5388 2.61719 13.8848V5.88477C2.61719 4.23077 3.96319 2.88477 5.61719 2.88477ZM14.6172 3.88477C14.352 3.88477 14.0976 3.99012 13.9101 4.17766C13.7225 4.3652 13.6172 4.61955 13.6172 4.88477C13.6172 5.14998 13.7225 5.40434 13.9101 5.59187C14.0976 5.77941 14.352 5.88477 14.6172 5.88477C14.8824 5.88477 15.1368 5.77941 15.3243 5.59187C15.5118 5.40434 15.6172 5.14998 15.6172 4.88477C15.6172 4.61955 15.5118 4.3652 15.3243 4.17766C15.1368 3.99012 14.8824 3.88477 14.6172 3.88477ZM9.61719 4.88477C6.86019 4.88477 4.61719 7.12777 4.61719 9.88477C4.61719 12.6418 6.86019 14.8848 9.61719 14.8848C12.3742 14.8848 14.6172 12.6418 14.6172 9.88477C14.6172 7.12777 12.3742 4.88477 9.61719 4.88477ZM9.61719 6.88477C11.2712 6.88477 12.6172 8.23077 12.6172 9.88477C12.6172 11.5388 11.2712 12.8848 9.61719 12.8848C7.96319 12.8848 6.61719 11.5388 6.61719 9.88477C6.61719 8.23077 7.96319 6.88477 9.61719 6.88477Z" fill="white"/>
</svg>
