<svg width="31" height="31" viewBox="0 0 31 31" fill="none" xmlns="http://www.w3.org/2000/svg">
<path d="M4.41421 0.224609C2.45966 0.224609 0.859863 1.82441 0.859863 3.77896V26.5268C0.859863 28.4813 2.45966 30.0811 4.41421 30.0811H27.1621C29.1166 30.0811 30.7164 28.4813 30.7164 26.5268V3.77896C30.7164 1.82441 29.1166 0.224609 27.1621 0.224609H4.41421ZM4.41421 1.64635H27.1621C28.3481 1.64635 29.2947 2.59288 29.2947 3.77896V26.5268C29.2947 27.7129 28.3481 28.6594 27.1621 28.6594H4.41421C3.22814 28.6594 2.2816 27.7129 2.2816 26.5268V3.77896C2.2816 2.59288 3.22814 1.64635 4.41421 1.64635ZM7.96856 5.20903C7.19 5.20903 6.4894 5.44174 5.97063 5.87825C5.45186 6.31475 5.13341 6.96686 5.13341 7.66514C5.13341 8.99246 6.28471 10.0272 7.74919 10.1296C7.75012 10.13 7.75104 10.1305 7.75197 10.131C7.82175 10.1548 7.89485 10.1674 7.96856 10.1685C9.58438 10.1685 10.8037 9.03661 10.8037 7.66514C10.8036 7.65263 10.8031 7.64013 10.8023 7.62765C10.73 6.27684 9.52568 5.20903 7.96856 5.20903ZM7.96856 6.61411C8.95826 6.61411 9.34905 7.0561 9.39169 7.68319C9.38305 8.29187 9.0065 8.76338 7.96856 8.76338C6.98372 8.76338 6.53849 8.25902 6.53849 7.66514C6.53849 7.3682 6.64684 7.14443 6.87449 6.95288C7.10213 6.76134 7.46756 6.61411 7.96856 6.61411ZM5.83595 10.8877C5.64742 10.8877 5.46662 10.9626 5.33331 11.0959C5.2 11.2292 5.1251 11.41 5.12508 11.5985V25.1051C5.1251 25.2936 5.2 25.4744 5.33331 25.6077C5.46662 25.741 5.64742 25.8159 5.83595 25.8159H10.1012C10.2897 25.8159 10.4705 25.741 10.6038 25.6077C10.7371 25.4744 10.812 25.2936 10.812 25.1051V20.9356V11.5985C10.812 11.41 10.7371 11.2292 10.6038 11.0959C10.4705 10.9626 10.2897 10.8877 10.1012 10.8877H5.83595ZM12.2338 10.8877C12.0453 10.8877 11.8645 10.9626 11.7311 11.0959C11.5978 11.2292 11.5229 11.41 11.5229 11.5985V25.1051C11.5229 25.2936 11.5978 25.4744 11.7311 25.6077C11.8645 25.741 12.0453 25.8159 12.2338 25.8159H16.499C16.6875 25.8159 16.8683 25.741 17.0016 25.6077C17.135 25.4744 17.2099 25.2936 17.2099 25.1051V17.9964C17.2099 17.4066 17.3708 16.8199 17.6542 16.4358C17.9375 16.0517 18.295 15.8211 18.9746 15.8332C19.6753 15.8453 20.0462 16.0853 20.3269 16.4622C20.6075 16.839 20.7642 17.404 20.7642 17.9964V25.1051C20.7642 25.2936 20.8391 25.4744 20.9725 25.6077C21.1058 25.741 21.2866 25.8159 21.4751 25.8159H25.7403C25.9288 25.8159 26.1096 25.741 26.243 25.6077C26.3763 25.4744 26.4512 25.2936 26.4512 25.1051V17.4715C26.4512 15.3663 25.8276 13.6987 24.7587 12.5704C23.6898 11.4422 22.2031 10.8877 20.6309 10.8877C19.1367 10.8877 17.9995 11.3887 17.2099 11.8998V11.5985C17.2099 11.41 17.135 11.2292 17.0016 11.0959C16.8683 10.9626 16.6875 10.8877 16.499 10.8877H12.2338ZM6.54682 12.3094H9.3903V20.9356V24.3942H6.54682V12.3094ZM12.9447 12.3094H15.7881V13.4187C15.7882 13.5678 15.8351 13.7131 15.9222 13.834C16.0093 13.955 16.1322 14.0455 16.2736 14.0928C16.415 14.14 16.5676 14.1417 16.71 14.0975C16.8523 14.0533 16.9772 13.9654 17.0669 13.8464C17.0669 13.8464 18.1832 12.3094 20.6309 12.3094C21.8773 12.3094 22.9461 12.7235 23.7271 13.5479C24.5081 14.3722 25.0294 15.6421 25.0294 17.4715V24.3942H22.186V17.9964C22.186 17.167 21.9873 16.3095 21.4682 15.6124C20.949 14.9154 20.076 14.43 18.9995 14.4115C17.9176 14.3922 17.0304 14.8877 16.5101 15.593C15.9898 16.2983 15.7881 17.1644 15.7881 17.9964V24.3942H12.9447V12.3094Z" fill="black"/>
<path d="M4.41421 0.224609C2.45966 0.224609 0.859863 1.82441 0.859863 3.77896V26.5268C0.859863 28.4813 2.45966 30.0811 4.41421 30.0811H27.1621C29.1166 30.0811 30.7164 28.4813 30.7164 26.5268V3.77896C30.7164 1.82441 29.1166 0.224609 27.1621 0.224609H4.41421ZM4.41421 1.64635H27.1621C28.3481 1.64635 29.2947 2.59288 29.2947 3.77896V26.5268C29.2947 27.7129 28.3481 28.6594 27.1621 28.6594H4.41421C3.22814 28.6594 2.2816 27.7129 2.2816 26.5268V3.77896C2.2816 2.59288 3.22814 1.64635 4.41421 1.64635ZM7.96856 5.20903C7.19 5.20903 6.4894 5.44174 5.97063 5.87825C5.45186 6.31475 5.13341 6.96686 5.13341 7.66514C5.13341 8.99246 6.28471 10.0272 7.74919 10.1296C7.75012 10.13 7.75104 10.1305 7.75197 10.131C7.82175 10.1548 7.89485 10.1674 7.96856 10.1685C9.58438 10.1685 10.8037 9.03661 10.8037 7.66514C10.8036 7.65263 10.8031 7.64013 10.8023 7.62765C10.73 6.27684 9.52568 5.20903 7.96856 5.20903ZM7.96856 6.61411C8.95826 6.61411 9.34905 7.0561 9.39169 7.68319C9.38305 8.29187 9.0065 8.76338 7.96856 8.76338C6.98372 8.76338 6.53849 8.25902 6.53849 7.66514C6.53849 7.3682 6.64684 7.14443 6.87449 6.95288C7.10213 6.76134 7.46756 6.61411 7.96856 6.61411ZM5.83595 10.8877C5.64742 10.8877 5.46662 10.9626 5.33331 11.0959C5.2 11.2292 5.1251 11.41 5.12508 11.5985V25.1051C5.1251 25.2936 5.2 25.4744 5.33331 25.6077C5.46662 25.741 5.64742 25.8159 5.83595 25.8159H10.1012C10.2897 25.8159 10.4705 25.741 10.6038 25.6077C10.7371 25.4744 10.812 25.2936 10.812 25.1051V20.9356V11.5985C10.812 11.41 10.7371 11.2292 10.6038 11.0959C10.4705 10.9626 10.2897 10.8877 10.1012 10.8877H5.83595ZM12.2338 10.8877C12.0453 10.8877 11.8645 10.9626 11.7311 11.0959C11.5978 11.2292 11.5229 11.41 11.5229 11.5985V25.1051C11.5229 25.2936 11.5978 25.4744 11.7311 25.6077C11.8645 25.741 12.0453 25.8159 12.2338 25.8159H16.499C16.6875 25.8159 16.8683 25.741 17.0016 25.6077C17.135 25.4744 17.2099 25.2936 17.2099 25.1051V17.9964C17.2099 17.4066 17.3708 16.8199 17.6542 16.4358C17.9375 16.0517 18.295 15.8211 18.9746 15.8332C19.6753 15.8453 20.0462 16.0853 20.3269 16.4622C20.6075 16.839 20.7642 17.404 20.7642 17.9964V25.1051C20.7642 25.2936 20.8391 25.4744 20.9725 25.6077C21.1058 25.741 21.2866 25.8159 21.4751 25.8159H25.7403C25.9288 25.8159 26.1096 25.741 26.243 25.6077C26.3763 25.4744 26.4512 25.2936 26.4512 25.1051V17.4715C26.4512 15.3663 25.8276 13.6987 24.7587 12.5704C23.6898 11.4422 22.2031 10.8877 20.6309 10.8877C19.1367 10.8877 17.9995 11.3887 17.2099 11.8998V11.5985C17.2099 11.41 17.135 11.2292 17.0016 11.0959C16.8683 10.9626 16.6875 10.8877 16.499 10.8877H12.2338ZM6.54682 12.3094H9.3903V20.9356V24.3942H6.54682V12.3094ZM12.9447 12.3094H15.7881V13.4187C15.7882 13.5678 15.8351 13.7131 15.9222 13.834C16.0093 13.955 16.1322 14.0455 16.2736 14.0928C16.415 14.14 16.5676 14.1417 16.71 14.0975C16.8523 14.0533 16.9772 13.9654 17.0669 13.8464C17.0669 13.8464 18.1832 12.3094 20.6309 12.3094C21.8773 12.3094 22.9461 12.7235 23.7271 13.5479C24.5081 14.3722 25.0294 15.6421 25.0294 17.4715V24.3942H22.186V17.9964C22.186 17.167 21.9873 16.3095 21.4682 15.6124C20.949 14.9154 20.076 14.43 18.9995 14.4115C17.9176 14.3922 17.0304 14.8877 16.5101 15.593C15.9898 16.2983 15.7881 17.1644 15.7881 17.9964V24.3942H12.9447V12.3094Z" fill="#5195D4"/>
<path d="M4.41421 0.224609C2.45966 0.224609 0.859863 1.82441 0.859863 3.77896V26.5268C0.859863 28.4813 2.45966 30.0811 4.41421 30.0811H27.1621C29.1166 30.0811 30.7164 28.4813 30.7164 26.5268V3.77896C30.7164 1.82441 29.1166 0.224609 27.1621 0.224609H4.41421ZM4.41421 1.64635H27.1621C28.3481 1.64635 29.2947 2.59288 29.2947 3.77896V26.5268C29.2947 27.7129 28.3481 28.6594 27.1621 28.6594H4.41421C3.22814 28.6594 2.2816 27.7129 2.2816 26.5268V3.77896C2.2816 2.59288 3.22814 1.64635 4.41421 1.64635ZM7.96856 5.20903C7.19 5.20903 6.4894 5.44174 5.97063 5.87825C5.45186 6.31475 5.13341 6.96686 5.13341 7.66514C5.13341 8.99246 6.28471 10.0272 7.74919 10.1296C7.75012 10.13 7.75104 10.1305 7.75197 10.131C7.82175 10.1548 7.89485 10.1674 7.96856 10.1685C9.58438 10.1685 10.8037 9.03661 10.8037 7.66514C10.8036 7.65263 10.8031 7.64013 10.8023 7.62765C10.73 6.27684 9.52568 5.20903 7.96856 5.20903ZM7.96856 6.61411C8.95826 6.61411 9.34905 7.0561 9.39169 7.68319C9.38305 8.29187 9.0065 8.76338 7.96856 8.76338C6.98372 8.76338 6.53849 8.25902 6.53849 7.66514C6.53849 7.3682 6.64684 7.14443 6.87449 6.95288C7.10213 6.76134 7.46756 6.61411 7.96856 6.61411ZM5.83595 10.8877C5.64742 10.8877 5.46662 10.9626 5.33331 11.0959C5.2 11.2292 5.1251 11.41 5.12508 11.5985V25.1051C5.1251 25.2936 5.2 25.4744 5.33331 25.6077C5.46662 25.741 5.64742 25.8159 5.83595 25.8159H10.1012C10.2897 25.8159 10.4705 25.741 10.6038 25.6077C10.7371 25.4744 10.812 25.2936 10.812 25.1051V20.9356V11.5985C10.812 11.41 10.7371 11.2292 10.6038 11.0959C10.4705 10.9626 10.2897 10.8877 10.1012 10.8877H5.83595ZM12.2338 10.8877C12.0453 10.8877 11.8645 10.9626 11.7311 11.0959C11.5978 11.2292 11.5229 11.41 11.5229 11.5985V25.1051C11.5229 25.2936 11.5978 25.4744 11.7311 25.6077C11.8645 25.741 12.0453 25.8159 12.2338 25.8159H16.499C16.6875 25.8159 16.8683 25.741 17.0016 25.6077C17.135 25.4744 17.2099 25.2936 17.2099 25.1051V17.9964C17.2099 17.4066 17.3708 16.8199 17.6542 16.4358C17.9375 16.0517 18.295 15.8211 18.9746 15.8332C19.6753 15.8453 20.0462 16.0853 20.3269 16.4622C20.6075 16.839 20.7642 17.404 20.7642 17.9964V25.1051C20.7642 25.2936 20.8391 25.4744 20.9725 25.6077C21.1058 25.741 21.2866 25.8159 21.4751 25.8159H25.7403C25.9288 25.8159 26.1096 25.741 26.243 25.6077C26.3763 25.4744 26.4512 25.2936 26.4512 25.1051V17.4715C26.4512 15.3663 25.8276 13.6987 24.7587 12.5704C23.6898 11.4422 22.2031 10.8877 20.6309 10.8877C19.1367 10.8877 17.9995 11.3887 17.2099 11.8998V11.5985C17.2099 11.41 17.135 11.2292 17.0016 11.0959C16.8683 10.9626 16.6875 10.8877 16.499 10.8877H12.2338ZM6.54682 12.3094H9.3903V20.9356V24.3942H6.54682V12.3094ZM12.9447 12.3094H15.7881V13.4187C15.7882 13.5678 15.8351 13.7131 15.9222 13.834C16.0093 13.955 16.1322 14.0455 16.2736 14.0928C16.415 14.14 16.5676 14.1417 16.71 14.0975C16.8523 14.0533 16.9772 13.9654 17.0669 13.8464C17.0669 13.8464 18.1832 12.3094 20.6309 12.3094C21.8773 12.3094 22.9461 12.7235 23.7271 13.5479C24.5081 14.3722 25.0294 15.6421 25.0294 17.4715V24.3942H22.186V17.9964C22.186 17.167 21.9873 16.3095 21.4682 15.6124C20.949 14.9154 20.076 14.43 18.9995 14.4115C17.9176 14.3922 17.0304 14.8877 16.5101 15.593C15.9898 16.2983 15.7881 17.1644 15.7881 17.9964V24.3942H12.9447V12.3094Z" fill="#3D6081"/>
<path d="M4.41421 0.224609C2.45966 0.224609 0.859863 1.82441 0.859863 3.77896V26.5268C0.859863 28.4813 2.45966 30.0811 4.41421 30.0811H27.1621C29.1166 30.0811 30.7164 28.4813 30.7164 26.5268V3.77896C30.7164 1.82441 29.1166 0.224609 27.1621 0.224609H4.41421ZM4.41421 1.64635H27.1621C28.3481 1.64635 29.2947 2.59288 29.2947 3.77896V26.5268C29.2947 27.7129 28.3481 28.6594 27.1621 28.6594H4.41421C3.22814 28.6594 2.2816 27.7129 2.2816 26.5268V3.77896C2.2816 2.59288 3.22814 1.64635 4.41421 1.64635ZM7.96856 5.20903C7.19 5.20903 6.4894 5.44174 5.97063 5.87825C5.45186 6.31475 5.13341 6.96686 5.13341 7.66514C5.13341 8.99246 6.28471 10.0272 7.74919 10.1296C7.75012 10.13 7.75104 10.1305 7.75197 10.131C7.82175 10.1548 7.89485 10.1674 7.96856 10.1685C9.58438 10.1685 10.8037 9.03661 10.8037 7.66514C10.8036 7.65263 10.8031 7.64013 10.8023 7.62765C10.73 6.27684 9.52568 5.20903 7.96856 5.20903ZM7.96856 6.61411C8.95826 6.61411 9.34905 7.0561 9.39169 7.68319C9.38305 8.29187 9.0065 8.76338 7.96856 8.76338C6.98372 8.76338 6.53849 8.25902 6.53849 7.66514C6.53849 7.3682 6.64684 7.14443 6.87449 6.95288C7.10213 6.76134 7.46756 6.61411 7.96856 6.61411ZM5.83595 10.8877C5.64742 10.8877 5.46662 10.9626 5.33331 11.0959C5.2 11.2292 5.1251 11.41 5.12508 11.5985V25.1051C5.1251 25.2936 5.2 25.4744 5.33331 25.6077C5.46662 25.741 5.64742 25.8159 5.83595 25.8159H10.1012C10.2897 25.8159 10.4705 25.741 10.6038 25.6077C10.7371 25.4744 10.812 25.2936 10.812 25.1051V20.9356V11.5985C10.812 11.41 10.7371 11.2292 10.6038 11.0959C10.4705 10.9626 10.2897 10.8877 10.1012 10.8877H5.83595ZM12.2338 10.8877C12.0453 10.8877 11.8645 10.9626 11.7311 11.0959C11.5978 11.2292 11.5229 11.41 11.5229 11.5985V25.1051C11.5229 25.2936 11.5978 25.4744 11.7311 25.6077C11.8645 25.741 12.0453 25.8159 12.2338 25.8159H16.499C16.6875 25.8159 16.8683 25.741 17.0016 25.6077C17.135 25.4744 17.2099 25.2936 17.2099 25.1051V17.9964C17.2099 17.4066 17.3708 16.8199 17.6542 16.4358C17.9375 16.0517 18.295 15.8211 18.9746 15.8332C19.6753 15.8453 20.0462 16.0853 20.3269 16.4622C20.6075 16.839 20.7642 17.404 20.7642 17.9964V25.1051C20.7642 25.2936 20.8391 25.4744 20.9725 25.6077C21.1058 25.741 21.2866 25.8159 21.4751 25.8159H25.7403C25.9288 25.8159 26.1096 25.741 26.243 25.6077C26.3763 25.4744 26.4512 25.2936 26.4512 25.1051V17.4715C26.4512 15.3663 25.8276 13.6987 24.7587 12.5704C23.6898 11.4422 22.2031 10.8877 20.6309 10.8877C19.1367 10.8877 17.9995 11.3887 17.2099 11.8998V11.5985C17.2099 11.41 17.135 11.2292 17.0016 11.0959C16.8683 10.9626 16.6875 10.8877 16.499 10.8877H12.2338ZM6.54682 12.3094H9.3903V20.9356V24.3942H6.54682V12.3094ZM12.9447 12.3094H15.7881V13.4187C15.7882 13.5678 15.8351 13.7131 15.9222 13.834C16.0093 13.955 16.1322 14.0455 16.2736 14.0928C16.415 14.14 16.5676 14.1417 16.71 14.0975C16.8523 14.0533 16.9772 13.9654 17.0669 13.8464C17.0669 13.8464 18.1832 12.3094 20.6309 12.3094C21.8773 12.3094 22.9461 12.7235 23.7271 13.5479C24.5081 14.3722 25.0294 15.6421 25.0294 17.4715V24.3942H22.186V17.9964C22.186 17.167 21.9873 16.3095 21.4682 15.6124C20.949 14.9154 20.076 14.43 18.9995 14.4115C17.9176 14.3922 17.0304 14.8877 16.5101 15.593C15.9898 16.2983 15.7881 17.1644 15.7881 17.9964V24.3942H12.9447V12.3094Z" fill="white"/>
<path d="M4.41421 0.224609C2.45966 0.224609 0.859863 1.82441 0.859863 3.77896V26.5268C0.859863 28.4813 2.45966 30.0811 4.41421 30.0811H27.1621C29.1166 30.0811 30.7164 28.4813 30.7164 26.5268V3.77896C30.7164 1.82441 29.1166 0.224609 27.1621 0.224609H4.41421ZM4.41421 1.64635H27.1621C28.3481 1.64635 29.2947 2.59288 29.2947 3.77896V26.5268C29.2947 27.7129 28.3481 28.6594 27.1621 28.6594H4.41421C3.22814 28.6594 2.2816 27.7129 2.2816 26.5268V3.77896C2.2816 2.59288 3.22814 1.64635 4.41421 1.64635ZM7.96856 5.20903C7.19 5.20903 6.4894 5.44174 5.97063 5.87825C5.45186 6.31475 5.13341 6.96686 5.13341 7.66514C5.13341 8.99246 6.28471 10.0272 7.74919 10.1296C7.75012 10.13 7.75104 10.1305 7.75197 10.131C7.82175 10.1548 7.89485 10.1674 7.96856 10.1685C9.58438 10.1685 10.8037 9.03661 10.8037 7.66514C10.8036 7.65263 10.8031 7.64013 10.8023 7.62765C10.73 6.27684 9.52568 5.20903 7.96856 5.20903ZM7.96856 6.61411C8.95826 6.61411 9.34905 7.0561 9.39169 7.68319C9.38305 8.29187 9.0065 8.76338 7.96856 8.76338C6.98372 8.76338 6.53849 8.25902 6.53849 7.66514C6.53849 7.3682 6.64684 7.14443 6.87449 6.95288C7.10213 6.76134 7.46756 6.61411 7.96856 6.61411ZM5.83595 10.8877C5.64742 10.8877 5.46662 10.9626 5.33331 11.0959C5.2 11.2292 5.1251 11.41 5.12508 11.5985V25.1051C5.1251 25.2936 5.2 25.4744 5.33331 25.6077C5.46662 25.741 5.64742 25.8159 5.83595 25.8159H10.1012C10.2897 25.8159 10.4705 25.741 10.6038 25.6077C10.7371 25.4744 10.812 25.2936 10.812 25.1051V20.9356V11.5985C10.812 11.41 10.7371 11.2292 10.6038 11.0959C10.4705 10.9626 10.2897 10.8877 10.1012 10.8877H5.83595ZM12.2338 10.8877C12.0453 10.8877 11.8645 10.9626 11.7311 11.0959C11.5978 11.2292 11.5229 11.41 11.5229 11.5985V25.1051C11.5229 25.2936 11.5978 25.4744 11.7311 25.6077C11.8645 25.741 12.0453 25.8159 12.2338 25.8159H16.499C16.6875 25.8159 16.8683 25.741 17.0016 25.6077C17.135 25.4744 17.2099 25.2936 17.2099 25.1051V17.9964C17.2099 17.4066 17.3708 16.8199 17.6542 16.4358C17.9375 16.0517 18.295 15.8211 18.9746 15.8332C19.6753 15.8453 20.0462 16.0853 20.3269 16.4622C20.6075 16.839 20.7642 17.404 20.7642 17.9964V25.1051C20.7642 25.2936 20.8391 25.4744 20.9725 25.6077C21.1058 25.741 21.2866 25.8159 21.4751 25.8159H25.7403C25.9288 25.8159 26.1096 25.741 26.243 25.6077C26.3763 25.4744 26.4512 25.2936 26.4512 25.1051V17.4715C26.4512 15.3663 25.8276 13.6987 24.7587 12.5704C23.6898 11.4422 22.2031 10.8877 20.6309 10.8877C19.1367 10.8877 17.9995 11.3887 17.2099 11.8998V11.5985C17.2099 11.41 17.135 11.2292 17.0016 11.0959C16.8683 10.9626 16.6875 10.8877 16.499 10.8877H12.2338ZM6.54682 12.3094H9.3903V20.9356V24.3942H6.54682V12.3094ZM12.9447 12.3094H15.7881V13.4187C15.7882 13.5678 15.8351 13.7131 15.9222 13.834C16.0093 13.955 16.1322 14.0455 16.2736 14.0928C16.415 14.14 16.5676 14.1417 16.71 14.0975C16.8523 14.0533 16.9772 13.9654 17.0669 13.8464C17.0669 13.8464 18.1832 12.3094 20.6309 12.3094C21.8773 12.3094 22.9461 12.7235 23.7271 13.5479C24.5081 14.3722 25.0294 15.6421 25.0294 17.4715V24.3942H22.186V17.9964C22.186 17.167 21.9873 16.3095 21.4682 15.6124C20.949 14.9154 20.076 14.43 18.9995 14.4115C17.9176 14.3922 17.0304 14.8877 16.5101 15.593C15.9898 16.2983 15.7881 17.1644 15.7881 17.9964V24.3942H12.9447V12.3094Z" fill="#3D6081"/>
</svg>
