<svg width="32" height="32" viewBox="0 0 32 32" fill="none" xmlns="http://www.w3.org/2000/svg">
<path d="M16.1387 0.538086C7.5098 0.538086 0.499512 7.54837 0.499512 16.1772C0.499512 24.0104 6.27713 30.493 13.8019 31.6234L14.6183 31.7469V19.4233H10.9238V16.9214H14.6183V13.5989C14.6183 11.553 15.1093 10.2055 15.9221 9.36009C16.7348 8.51468 17.9357 8.0883 19.6069 8.0883C20.9432 8.0883 21.4631 8.16927 21.9575 8.22992V10.2778H20.2178C19.2307 10.2778 18.4209 10.8286 18.0005 11.5621C17.5802 12.2957 17.4493 13.1715 17.4493 14.0641V16.92H21.802L21.4146 19.422H17.4493V31.7664L18.256 31.6567C25.8878 30.6217 31.7778 24.087 31.7778 16.1772C31.7778 7.54837 24.7675 0.538086 16.1387 0.538086ZM16.1387 1.95983C23.9991 1.95983 30.3561 8.31674 30.3561 16.1772C30.3561 23.0938 25.4054 28.7822 18.8711 30.0628V20.8437H22.6337L23.4598 15.4983H18.8711V14.0641C18.8711 13.3265 19.006 12.6657 19.2334 12.2688C19.4609 11.8719 19.6801 11.6996 20.2178 11.6996H23.3793V6.94286L22.7628 6.85955C22.3364 6.80186 21.363 6.66656 19.6069 6.66656C17.6854 6.66656 16.036 7.19002 14.8974 8.37432C13.7588 9.55862 13.1966 11.3221 13.1966 13.5989V15.4997H9.50201V20.8451H13.1966V30.0184C6.76725 28.6564 1.92125 23.019 1.92125 16.1772C1.92125 8.31674 8.27816 1.95983 16.1387 1.95983Z" fill="black"/>
<path d="M16.1387 0.538086C7.5098 0.538086 0.499512 7.54837 0.499512 16.1772C0.499512 24.0104 6.27713 30.493 13.8019 31.6234L14.6183 31.7469V19.4233H10.9238V16.9214H14.6183V13.5989C14.6183 11.553 15.1093 10.2055 15.9221 9.36009C16.7348 8.51468 17.9357 8.0883 19.6069 8.0883C20.9432 8.0883 21.4631 8.16927 21.9575 8.22992V10.2778H20.2178C19.2307 10.2778 18.4209 10.8286 18.0005 11.5621C17.5802 12.2957 17.4493 13.1715 17.4493 14.0641V16.92H21.802L21.4146 19.422H17.4493V31.7664L18.256 31.6567C25.8878 30.6217 31.7778 24.087 31.7778 16.1772C31.7778 7.54837 24.7675 0.538086 16.1387 0.538086ZM16.1387 1.95983C23.9991 1.95983 30.3561 8.31674 30.3561 16.1772C30.3561 23.0938 25.4054 28.7822 18.8711 30.0628V20.8437H22.6337L23.4598 15.4983H18.8711V14.0641C18.8711 13.3265 19.006 12.6657 19.2334 12.2688C19.4609 11.8719 19.6801 11.6996 20.2178 11.6996H23.3793V6.94286L22.7628 6.85955C22.3364 6.80186 21.363 6.66656 19.6069 6.66656C17.6854 6.66656 16.036 7.19002 14.8974 8.37432C13.7588 9.55862 13.1966 11.3221 13.1966 13.5989V15.4997H9.50201V20.8451H13.1966V30.0184C6.76725 28.6564 1.92125 23.019 1.92125 16.1772C1.92125 8.31674 8.27816 1.95983 16.1387 1.95983Z" fill="#5195D4"/>
<path d="M16.1387 0.538086C7.5098 0.538086 0.499512 7.54837 0.499512 16.1772C0.499512 24.0104 6.27713 30.493 13.8019 31.6234L14.6183 31.7469V19.4233H10.9238V16.9214H14.6183V13.5989C14.6183 11.553 15.1093 10.2055 15.9221 9.36009C16.7348 8.51468 17.9357 8.0883 19.6069 8.0883C20.9432 8.0883 21.4631 8.16927 21.9575 8.22992V10.2778H20.2178C19.2307 10.2778 18.4209 10.8286 18.0005 11.5621C17.5802 12.2957 17.4493 13.1715 17.4493 14.0641V16.92H21.802L21.4146 19.422H17.4493V31.7664L18.256 31.6567C25.8878 30.6217 31.7778 24.087 31.7778 16.1772C31.7778 7.54837 24.7675 0.538086 16.1387 0.538086ZM16.1387 1.95983C23.9991 1.95983 30.3561 8.31674 30.3561 16.1772C30.3561 23.0938 25.4054 28.7822 18.8711 30.0628V20.8437H22.6337L23.4598 15.4983H18.8711V14.0641C18.8711 13.3265 19.006 12.6657 19.2334 12.2688C19.4609 11.8719 19.6801 11.6996 20.2178 11.6996H23.3793V6.94286L22.7628 6.85955C22.3364 6.80186 21.363 6.66656 19.6069 6.66656C17.6854 6.66656 16.036 7.19002 14.8974 8.37432C13.7588 9.55862 13.1966 11.3221 13.1966 13.5989V15.4997H9.50201V20.8451H13.1966V30.0184C6.76725 28.6564 1.92125 23.019 1.92125 16.1772C1.92125 8.31674 8.27816 1.95983 16.1387 1.95983Z" fill="#3D6081"/>
<path d="M16.1387 0.538086C7.5098 0.538086 0.499512 7.54837 0.499512 16.1772C0.499512 24.0104 6.27713 30.493 13.8019 31.6234L14.6183 31.7469V19.4233H10.9238V16.9214H14.6183V13.5989C14.6183 11.553 15.1093 10.2055 15.9221 9.36009C16.7348 8.51468 17.9357 8.0883 19.6069 8.0883C20.9432 8.0883 21.4631 8.16927 21.9575 8.22992V10.2778H20.2178C19.2307 10.2778 18.4209 10.8286 18.0005 11.5621C17.5802 12.2957 17.4493 13.1715 17.4493 14.0641V16.92H21.802L21.4146 19.422H17.4493V31.7664L18.256 31.6567C25.8878 30.6217 31.7778 24.087 31.7778 16.1772C31.7778 7.54837 24.7675 0.538086 16.1387 0.538086ZM16.1387 1.95983C23.9991 1.95983 30.3561 8.31674 30.3561 16.1772C30.3561 23.0938 25.4054 28.7822 18.8711 30.0628V20.8437H22.6337L23.4598 15.4983H18.8711V14.0641C18.8711 13.3265 19.006 12.6657 19.2334 12.2688C19.4609 11.8719 19.6801 11.6996 20.2178 11.6996H23.3793V6.94286L22.7628 6.85955C22.3364 6.80186 21.363 6.66656 19.6069 6.66656C17.6854 6.66656 16.036 7.19002 14.8974 8.37432C13.7588 9.55862 13.1966 11.3221 13.1966 13.5989V15.4997H9.50201V20.8451H13.1966V30.0184C6.76725 28.6564 1.92125 23.019 1.92125 16.1772C1.92125 8.31674 8.27816 1.95983 16.1387 1.95983Z" fill="white"/>
<path d="M16.1387 0.538086C7.5098 0.538086 0.499512 7.54837 0.499512 16.1772C0.499512 24.0104 6.27713 30.493 13.8019 31.6234L14.6183 31.7469V19.4233H10.9238V16.9214H14.6183V13.5989C14.6183 11.553 15.1093 10.2055 15.9221 9.36009C16.7348 8.51468 17.9357 8.0883 19.6069 8.0883C20.9432 8.0883 21.4631 8.16927 21.9575 8.22992V10.2778H20.2178C19.2307 10.2778 18.4209 10.8286 18.0005 11.5621C17.5802 12.2957 17.4493 13.1715 17.4493 14.0641V16.92H21.802L21.4146 19.422H17.4493V31.7664L18.256 31.6567C25.8878 30.6217 31.7778 24.087 31.7778 16.1772C31.7778 7.54837 24.7675 0.538086 16.1387 0.538086ZM16.1387 1.95983C23.9991 1.95983 30.3561 8.31674 30.3561 16.1772C30.3561 23.0938 25.4054 28.7822 18.8711 30.0628V20.8437H22.6337L23.4598 15.4983H18.8711V14.0641C18.8711 13.3265 19.006 12.6657 19.2334 12.2688C19.4609 11.8719 19.6801 11.6996 20.2178 11.6996H23.3793V6.94286L22.7628 6.85955C22.3364 6.80186 21.363 6.66656 19.6069 6.66656C17.6854 6.66656 16.036 7.19002 14.8974 8.37432C13.7588 9.55862 13.1966 11.3221 13.1966 13.5989V15.4997H9.50201V20.8451H13.1966V30.0184C6.76725 28.6564 1.92125 23.019 1.92125 16.1772C1.92125 8.31674 8.27816 1.95983 16.1387 1.95983Z" fill="#3D6081"/>
</svg>
