<svg width="21" height="21" viewBox="0 0 21 21" fill="none" xmlns="http://www.w3.org/2000/svg">
<path d="M2.69297 0.652344C1.3732 0.652344 0.292969 1.73258 0.292969 3.05234V18.4123C0.292969 19.7321 1.3732 20.8123 2.69297 20.8123H18.053C19.3727 20.8123 20.453 19.7321 20.453 18.4123V3.05234C20.453 1.73258 19.3727 0.652344 18.053 0.652344H2.69297ZM2.69297 1.61234H18.053C18.8538 1.61234 19.493 2.25147 19.493 3.05234V18.4123C19.493 19.2132 18.8538 19.8523 18.053 19.8523H2.69297C1.8921 19.8523 1.25297 19.2132 1.25297 18.4123V3.05234C1.25297 2.25147 1.8921 1.61234 2.69297 1.61234ZM5.09297 4.01797C4.56726 4.01797 4.09419 4.1751 3.74391 4.46984C3.39362 4.76459 3.17859 5.20491 3.17859 5.67641C3.17859 6.57265 3.95599 7.27136 4.94484 7.34047C4.94547 7.34078 4.94609 7.3411 4.94672 7.34141C4.99384 7.35747 5.04319 7.36601 5.09297 7.36672C6.18401 7.36672 7.00734 6.60246 7.00734 5.67641C7.00726 5.66796 7.00694 5.65952 7.00641 5.65109C6.95757 4.73898 6.14438 4.01797 5.09297 4.01797ZM5.09297 4.96672C5.76124 4.96672 6.02511 5.26516 6.05391 5.68859C6.04807 6.09959 5.79381 6.41797 5.09297 6.41797C4.42797 6.41797 4.12734 6.07741 4.12734 5.67641C4.12734 5.4759 4.20051 5.32481 4.35422 5.19547C4.50793 5.06613 4.75467 4.96672 5.09297 4.96672ZM3.65297 7.85234C3.52567 7.85236 3.40359 7.90293 3.31357 7.99295C3.22356 8.08296 3.17298 8.20504 3.17297 8.33234V17.4523C3.17298 17.5796 3.22356 17.7017 3.31357 17.7917C3.40359 17.8818 3.52567 17.9323 3.65297 17.9323H6.53297C6.66027 17.9323 6.78235 17.8818 6.87237 17.7917C6.96238 17.7017 7.01296 17.5796 7.01297 17.4523V14.637V8.33234C7.01296 8.20504 6.96238 8.08296 6.87237 7.99295C6.78235 7.90293 6.66027 7.85236 6.53297 7.85234H3.65297ZM7.97297 7.85234C7.84567 7.85236 7.72359 7.90293 7.63357 7.99295C7.54356 8.08296 7.49298 8.20504 7.49297 8.33234V17.4523C7.49298 17.5796 7.54356 17.7017 7.63357 17.7917C7.72359 17.8818 7.84567 17.9323 7.97297 17.9323H10.853C10.9803 17.9323 11.1024 17.8818 11.1924 17.7917C11.2824 17.7017 11.333 17.5796 11.333 17.4523V12.6523C11.333 12.2541 11.4416 11.858 11.633 11.5986C11.8243 11.3392 12.0657 11.1836 12.5245 11.1917C12.9977 11.1999 13.2482 11.3619 13.4377 11.6164C13.6271 11.8709 13.733 12.2523 13.733 12.6523V17.4523C13.733 17.5796 13.7836 17.7017 13.8736 17.7917C13.9636 17.8818 14.0857 17.9323 14.213 17.9323H17.093C17.2203 17.9323 17.3424 17.8818 17.4324 17.7917C17.5224 17.7017 17.573 17.5796 17.573 17.4523V12.298C17.573 10.8764 17.1519 9.75042 16.4302 8.98859C15.7084 8.22676 14.7046 7.85234 13.643 7.85234C12.634 7.85234 11.8662 8.19069 11.333 8.53578V8.33234C11.333 8.20504 11.2824 8.08296 11.1924 7.99295C11.1024 7.90293 10.9803 7.85236 10.853 7.85234H7.97297ZM4.13297 8.81234H6.05297V14.637V16.9723H4.13297V8.81234ZM8.45297 8.81234H10.373V9.56141C10.373 9.66206 10.4047 9.76015 10.4635 9.84182C10.5223 9.92349 10.6053 9.98461 10.7008 10.0165C10.7962 10.0485 10.8993 10.0496 10.9954 10.0197C11.0915 9.98985 11.1758 9.93054 11.2364 9.85016C11.2364 9.85016 11.9902 8.81234 13.643 8.81234C14.4846 8.81234 15.2063 9.09198 15.7336 9.64859C16.2609 10.2052 16.613 11.0627 16.613 12.298V16.9723H14.693V12.6523C14.693 12.0923 14.5588 11.5134 14.2083 11.0427C13.8578 10.572 13.2682 10.2442 12.5414 10.2317C11.8108 10.2187 11.2118 10.5533 10.8605 11.0295C10.5092 11.5058 10.373 12.0906 10.373 12.6523V16.9723H8.45297V8.81234Z" fill="black"/>
<path d="M2.69297 0.652344C1.3732 0.652344 0.292969 1.73258 0.292969 3.05234V18.4123C0.292969 19.7321 1.3732 20.8123 2.69297 20.8123H18.053C19.3727 20.8123 20.453 19.7321 20.453 18.4123V3.05234C20.453 1.73258 19.3727 0.652344 18.053 0.652344H2.69297ZM2.69297 1.61234H18.053C18.8538 1.61234 19.493 2.25147 19.493 3.05234V18.4123C19.493 19.2132 18.8538 19.8523 18.053 19.8523H2.69297C1.8921 19.8523 1.25297 19.2132 1.25297 18.4123V3.05234C1.25297 2.25147 1.8921 1.61234 2.69297 1.61234ZM5.09297 4.01797C4.56726 4.01797 4.09419 4.1751 3.74391 4.46984C3.39362 4.76459 3.17859 5.20491 3.17859 5.67641C3.17859 6.57265 3.95599 7.27136 4.94484 7.34047C4.94547 7.34078 4.94609 7.3411 4.94672 7.34141C4.99384 7.35747 5.04319 7.36601 5.09297 7.36672C6.18401 7.36672 7.00734 6.60246 7.00734 5.67641C7.00726 5.66796 7.00694 5.65952 7.00641 5.65109C6.95757 4.73898 6.14438 4.01797 5.09297 4.01797ZM5.09297 4.96672C5.76124 4.96672 6.02511 5.26516 6.05391 5.68859C6.04807 6.09959 5.79381 6.41797 5.09297 6.41797C4.42797 6.41797 4.12734 6.07741 4.12734 5.67641C4.12734 5.4759 4.20051 5.32481 4.35422 5.19547C4.50793 5.06613 4.75467 4.96672 5.09297 4.96672ZM3.65297 7.85234C3.52567 7.85236 3.40359 7.90293 3.31357 7.99295C3.22356 8.08296 3.17298 8.20504 3.17297 8.33234V17.4523C3.17298 17.5796 3.22356 17.7017 3.31357 17.7917C3.40359 17.8818 3.52567 17.9323 3.65297 17.9323H6.53297C6.66027 17.9323 6.78235 17.8818 6.87237 17.7917C6.96238 17.7017 7.01296 17.5796 7.01297 17.4523V14.637V8.33234C7.01296 8.20504 6.96238 8.08296 6.87237 7.99295C6.78235 7.90293 6.66027 7.85236 6.53297 7.85234H3.65297ZM7.97297 7.85234C7.84567 7.85236 7.72359 7.90293 7.63357 7.99295C7.54356 8.08296 7.49298 8.20504 7.49297 8.33234V17.4523C7.49298 17.5796 7.54356 17.7017 7.63357 17.7917C7.72359 17.8818 7.84567 17.9323 7.97297 17.9323H10.853C10.9803 17.9323 11.1024 17.8818 11.1924 17.7917C11.2824 17.7017 11.333 17.5796 11.333 17.4523V12.6523C11.333 12.2541 11.4416 11.858 11.633 11.5986C11.8243 11.3392 12.0657 11.1836 12.5245 11.1917C12.9977 11.1999 13.2482 11.3619 13.4377 11.6164C13.6271 11.8709 13.733 12.2523 13.733 12.6523V17.4523C13.733 17.5796 13.7836 17.7017 13.8736 17.7917C13.9636 17.8818 14.0857 17.9323 14.213 17.9323H17.093C17.2203 17.9323 17.3424 17.8818 17.4324 17.7917C17.5224 17.7017 17.573 17.5796 17.573 17.4523V12.298C17.573 10.8764 17.1519 9.75042 16.4302 8.98859C15.7084 8.22676 14.7046 7.85234 13.643 7.85234C12.634 7.85234 11.8662 8.19069 11.333 8.53578V8.33234C11.333 8.20504 11.2824 8.08296 11.1924 7.99295C11.1024 7.90293 10.9803 7.85236 10.853 7.85234H7.97297ZM4.13297 8.81234H6.05297V14.637V16.9723H4.13297V8.81234ZM8.45297 8.81234H10.373V9.56141C10.373 9.66206 10.4047 9.76015 10.4635 9.84182C10.5223 9.92349 10.6053 9.98461 10.7008 10.0165C10.7962 10.0485 10.8993 10.0496 10.9954 10.0197C11.0915 9.98985 11.1758 9.93054 11.2364 9.85016C11.2364 9.85016 11.9902 8.81234 13.643 8.81234C14.4846 8.81234 15.2063 9.09198 15.7336 9.64859C16.2609 10.2052 16.613 11.0627 16.613 12.298V16.9723H14.693V12.6523C14.693 12.0923 14.5588 11.5134 14.2083 11.0427C13.8578 10.572 13.2682 10.2442 12.5414 10.2317C11.8108 10.2187 11.2118 10.5533 10.8605 11.0295C10.5092 11.5058 10.373 12.0906 10.373 12.6523V16.9723H8.45297V8.81234Z" fill="white"/>
</svg>
